<svg width="128" height="31" viewBox="0 0 128 31" fill="none" xmlns="http://www.w3.org/2000/svg">
<g filter="url(#filter0_d)">
<path d="M11.0244 20.6017V9.0325H9.37672V22H17.3656V20.6017H11.0244ZM24.3748 22.1781C25.313 22.1781 26.0997 21.9911 26.735 21.617C27.3762 21.237 27.8572 20.8036 28.1778 20.3167L27.1714 19.533C26.8686 19.9248 26.4886 20.2395 26.0314 20.477C25.5742 20.7145 25.0517 20.8333 24.4639 20.8333C24.0186 20.8333 23.6119 20.7502 23.2437 20.5839C22.8756 20.4177 22.5609 20.1891 22.2997 19.8981C22.0444 19.625 21.8425 19.3103 21.6941 18.9541C21.5516 18.5978 21.4595 18.1852 21.418 17.7161V17.6537H28.3025V16.9145C28.3025 16.2436 28.2164 15.6202 28.0442 15.0442C27.878 14.4683 27.6227 13.9666 27.2783 13.5391C26.9339 13.1175 26.5005 12.788 25.978 12.5505C25.4614 12.307 24.8558 12.1853 24.1611 12.1853C23.6089 12.1853 23.0686 12.2981 22.5402 12.5237C22.0177 12.7494 21.5516 13.073 21.1419 13.4945C20.7262 13.922 20.3937 14.4445 20.1444 15.062C19.895 15.6736 19.7703 16.3683 19.7703 17.1461V17.5202C19.7703 18.1911 19.8831 18.8116 20.1087 19.3816C20.3344 19.9516 20.6491 20.4444 21.0528 20.86C21.4566 21.2756 21.9405 21.5992 22.5045 21.8308C23.0745 22.0623 23.698 22.1781 24.3748 22.1781ZM24.1611 13.5391C24.5827 13.5391 24.9448 13.6162 25.2477 13.7706C25.5564 13.925 25.8117 14.1269 26.0136 14.3762C26.2155 14.6256 26.3728 14.9225 26.4856 15.2669C26.5984 15.6053 26.6548 15.923 26.6548 16.2198V16.3H21.4714C21.5367 15.8547 21.6495 15.4628 21.8098 15.1244C21.9761 14.78 22.178 14.4891 22.4155 14.2516C22.653 14.02 22.9202 13.8448 23.217 13.7261C23.5139 13.6014 23.8286 13.5391 24.1611 13.5391ZM30.7695 17.1016V17.2886C30.7695 17.9773 30.8586 18.6216 31.0367 19.2212C31.2148 19.815 31.4702 20.3316 31.8027 20.7709C32.1292 21.2103 32.53 21.5547 33.005 21.8041C33.48 22.0534 34.0114 22.1781 34.5992 22.1781C34.9495 22.1781 35.2761 22.1395 35.5789 22.0623C35.8817 21.9911 36.1578 21.8872 36.4072 21.7506C36.5675 21.6616 36.7159 21.5577 36.8525 21.4389C36.995 21.3202 37.1286 21.1895 37.2533 21.047V21.8753C37.2533 22.2909 37.1939 22.6591 37.0752 22.9797C36.9564 23.3003 36.7872 23.5675 36.5675 23.7813C36.3419 24.0009 36.0717 24.1672 35.757 24.28C35.4423 24.3928 35.0891 24.4492 34.6972 24.4492C34.4775 24.4492 34.2578 24.4255 34.0381 24.378C33.8184 24.3364 33.5987 24.2652 33.3791 24.1642C33.1594 24.0633 32.9427 23.9267 32.7289 23.7545C32.5152 23.5883 32.3073 23.3834 32.1055 23.14L31.2505 24.1286C31.4702 24.4433 31.7314 24.7075 32.0342 24.9213C32.343 25.135 32.6636 25.3042 32.9961 25.4289C33.3227 25.5595 33.6462 25.6516 33.9669 25.705C34.2875 25.7644 34.5725 25.7941 34.8219 25.7941C35.4275 25.7941 35.9797 25.705 36.4784 25.5269C36.9772 25.3488 37.4077 25.0875 37.7698 24.7431C38.1261 24.3988 38.4022 23.9802 38.5981 23.4873C38.8 22.9945 38.9009 22.4305 38.9009 21.7952V12.3634H37.4047L37.3245 13.4144C37.2117 13.2719 37.09 13.1412 36.9594 13.0225C36.8347 12.9037 36.7011 12.7998 36.5586 12.7108C36.2973 12.5386 36.0034 12.408 35.6769 12.3189C35.3562 12.2298 35.003 12.1853 34.617 12.1853C34.0173 12.1853 33.48 12.307 33.005 12.5505C32.53 12.7939 32.1262 13.1323 31.7937 13.5658C31.4612 13.9992 31.2059 14.5187 31.0278 15.1244C30.8556 15.7241 30.7695 16.3831 30.7695 17.1016ZM32.4172 17.2886V17.1016C32.4172 16.6325 32.4647 16.1872 32.5597 15.7656C32.6606 15.3381 32.818 14.9611 33.0317 14.6345C33.2395 14.3139 33.5067 14.0586 33.8333 13.8686C34.1658 13.6786 34.5636 13.5836 35.0267 13.5836C35.2998 13.5836 35.5492 13.6192 35.7748 13.6905C36.0005 13.7558 36.2053 13.8478 36.3894 13.9666C36.5734 14.0912 36.7367 14.2367 36.8792 14.403C37.0217 14.5692 37.1464 14.7533 37.2533 14.9552V19.3727C37.1464 19.5805 37.0217 19.7705 36.8792 19.9427C36.7367 20.1148 36.5764 20.2633 36.3983 20.388C36.2142 20.5127 36.0064 20.6106 35.7748 20.6819C35.5492 20.7472 35.2939 20.7798 35.0089 20.7798C34.5517 20.7798 34.1598 20.6878 33.8333 20.5037C33.5067 20.3137 33.2395 20.0584 33.0317 19.7378C32.818 19.4172 32.6606 19.0461 32.5597 18.6245C32.4647 18.203 32.4172 17.7577 32.4172 17.2886ZM48.3594 22H50.0783V21.8575C49.9714 21.5903 49.8883 21.2786 49.8289 20.9223C49.7695 20.5602 49.7398 20.2187 49.7398 19.8981V15.4183C49.7398 14.878 49.6419 14.4059 49.4459 14.0022C49.25 13.5984 48.9828 13.26 48.6444 12.9869C48.3 12.7197 47.8933 12.5208 47.4242 12.3902C46.9552 12.2536 46.4475 12.1853 45.9012 12.1853C45.3016 12.1853 44.7642 12.2684 44.2892 12.4347C43.8202 12.6009 43.4223 12.8177 43.0958 13.0848C42.7633 13.358 42.508 13.6637 42.3298 14.0022C42.1577 14.3406 42.0686 14.685 42.0627 15.0353H43.7192C43.7192 14.8334 43.7667 14.6405 43.8617 14.4564C43.9627 14.2664 44.1022 14.1031 44.2803 13.9666C44.4584 13.83 44.6752 13.7202 44.9305 13.637C45.1917 13.5539 45.4856 13.5123 45.8122 13.5123C46.1625 13.5123 46.4772 13.5569 46.7562 13.6459C47.0412 13.735 47.2817 13.8597 47.4777 14.02C47.6736 14.1862 47.825 14.3852 47.9319 14.6167C48.0387 14.8483 48.0922 15.1095 48.0922 15.4005V16.1575H46.2931C45.6222 16.1575 45.0136 16.2228 44.4673 16.3534C43.927 16.4841 43.4639 16.68 43.078 16.9412C42.692 17.2084 42.3922 17.5409 42.1784 17.9387C41.9706 18.3366 41.8667 18.7997 41.8667 19.3281C41.8667 19.7319 41.9439 20.1089 42.0983 20.4592C42.2586 20.8036 42.4842 21.1005 42.7752 21.3498C43.0602 21.6052 43.4075 21.807 43.8172 21.9555C44.2328 22.1039 44.6959 22.1781 45.2066 22.1781C45.5212 22.1781 45.8181 22.1455 46.0972 22.0802C46.3762 22.0148 46.6405 21.9258 46.8898 21.813C47.1333 21.7002 47.3559 21.5695 47.5578 21.4211C47.7656 21.2727 47.9527 21.1153 48.1189 20.9491C48.1367 21.1509 48.1634 21.3469 48.1991 21.5369C48.2406 21.7209 48.2941 21.8753 48.3594 22ZM45.447 20.7442C45.1264 20.7442 44.8444 20.7027 44.6009 20.6195C44.3575 20.5364 44.1556 20.4206 43.9953 20.2722C43.835 20.1297 43.7133 19.9575 43.6302 19.7556C43.553 19.5537 43.5144 19.3341 43.5144 19.0966C43.5144 18.8472 43.5589 18.6245 43.648 18.4286C43.743 18.2327 43.8795 18.0634 44.0577 17.9209C44.307 17.7191 44.6425 17.5706 45.0641 17.4756C45.4916 17.3747 45.9903 17.3242 46.5603 17.3242H48.0922V19.2747C47.9972 19.4647 47.8666 19.6487 47.7003 19.8269C47.5341 19.9991 47.3381 20.1534 47.1125 20.29C46.8809 20.4266 46.6256 20.5364 46.3466 20.6195C46.0675 20.7027 45.7677 20.7442 45.447 20.7442ZM53.24 8.32V9.75391H56.5175V20.575H53.24V22H61.3091V20.575H58.1652V8.32H53.24Z" fill="#30475E"/>
<path d="M11.0244 20.6017H10.5244V21.1017H11.0244V20.6017ZM11.0244 9.0325H11.5244V8.5325H11.0244V9.0325ZM9.37672 9.0325V8.5325H8.87672V9.0325H9.37672ZM9.37672 22H8.87672V22.5H9.37672V22ZM17.3656 22V22.5H17.8656V22H17.3656ZM17.3656 20.6017H17.8656V20.1017H17.3656V20.6017ZM11.5244 20.6017V9.0325H10.5244V20.6017H11.5244ZM11.0244 8.5325H9.37672V9.5325H11.0244V8.5325ZM8.87672 9.0325V22H9.87672V9.0325H8.87672ZM9.37672 22.5H17.3656V21.5H9.37672V22.5ZM17.8656 22V20.6017H16.8656V22H17.8656ZM17.3656 20.1017H11.0244V21.1017H17.3656V20.1017ZM26.735 21.617L26.9887 22.0479L26.9899 22.0472L26.735 21.617ZM28.1778 20.3167L28.5954 20.5917L28.8494 20.206L28.485 19.9222L28.1778 20.3167ZM27.1714 19.533L27.4786 19.1385L27.0826 18.8301L26.7758 19.2272L27.1714 19.533ZM23.2437 20.5839L23.038 21.0396L23.2437 20.5839ZM22.2997 19.8981L22.6718 19.564L22.6649 19.5567L22.2997 19.8981ZM21.6941 18.9541L21.2298 19.1398L21.2325 19.1464L21.6941 18.9541ZM21.418 17.7161H20.918V17.7382L20.9199 17.7602L21.418 17.7161ZM21.418 17.6537V17.1537H20.918V17.6537H21.418ZM28.3025 17.6537V18.1537H28.8025V17.6537H28.3025ZM28.0442 15.0442L27.5638 15.1829L27.5652 15.1874L28.0442 15.0442ZM27.2783 13.5391L27.6677 13.2254L27.6655 13.2227L27.2783 13.5391ZM25.978 12.5505L25.7648 13.0028L25.7711 13.0057L25.978 12.5505ZM22.5402 12.5237L22.3438 12.0639L22.3419 12.0647L22.5402 12.5237ZM21.1419 13.4945L21.5004 13.8431L21.5004 13.843L21.1419 13.4945ZM20.1444 15.062L20.6074 15.2508L20.608 15.2493L20.1444 15.062ZM21.0528 20.86L21.4115 20.5116L21.0528 20.86ZM22.5045 21.8308L22.3146 22.2933L22.3163 22.294L22.5045 21.8308ZM25.2477 13.7706L25.0206 14.2161L25.024 14.2178L25.2477 13.7706ZM26.4856 15.2669L26.0105 15.4225L26.0113 15.425L26.4856 15.2669ZM26.6548 16.3V16.8H27.1548V16.3H26.6548ZM21.4714 16.3L20.9767 16.2274L20.8927 16.8H21.4714V16.3ZM21.8098 15.1244L21.3596 14.907L21.358 14.9103L21.8098 15.1244ZM22.4155 14.2516L22.0664 13.8935L22.0619 13.898L22.4155 14.2516ZM23.217 13.7261L23.4028 14.1904L23.4106 14.1871L23.217 13.7261ZM24.3748 22.6781C25.3783 22.6781 26.2582 22.478 26.9887 22.0479L26.4813 21.1862C25.9412 21.5042 25.2477 21.6781 24.3748 21.6781V22.6781ZM26.9899 22.0472C27.6788 21.6389 28.2231 21.1571 28.5954 20.5917L27.7602 20.0417C27.4913 20.4501 27.0737 20.8351 26.4801 21.1869L26.9899 22.0472ZM28.485 19.9222L27.4786 19.1385L26.8642 19.9275L27.8706 20.7112L28.485 19.9222ZM26.7758 19.2272C26.5191 19.5594 26.1963 19.8279 25.8009 20.0333L26.2619 20.9207C26.7808 20.6512 27.2181 20.2903 27.567 19.8387L26.7758 19.2272ZM25.8009 20.0333C25.4244 20.2289 24.9829 20.3333 24.4639 20.3333V21.3333C25.1206 21.3333 25.724 21.2001 26.2619 20.9207L25.8009 20.0333ZM24.4639 20.3333C24.0822 20.3333 23.7466 20.2624 23.4495 20.1282L23.038 21.0396C23.4771 21.2379 23.955 21.3333 24.4639 21.3333V20.3333ZM23.4495 20.1282C23.1425 19.9896 22.885 19.8016 22.6717 19.5641L21.9277 20.2322C22.2368 20.5765 22.6087 20.8457 23.038 21.0396L23.4495 20.1282ZM22.6649 19.5567C22.4517 19.3285 22.2818 19.0648 22.1556 18.7618L21.2325 19.1464C21.4031 19.5559 21.6371 19.9215 21.9344 20.2396L22.6649 19.5567ZM22.1583 18.7684C22.0375 18.4663 21.9542 18.103 21.916 17.672L20.9199 17.7602C20.9648 18.2673 21.0656 18.7293 21.2298 19.1398L22.1583 18.7684ZM21.918 17.7161V17.6537H20.918V17.7161H21.918ZM21.418 18.1537H28.3025V17.1537H21.418V18.1537ZM28.8025 17.6537V16.9145H27.8025V17.6537H28.8025ZM28.8025 16.9145C28.8025 16.2006 28.7109 15.5284 28.5233 14.901L27.5652 15.1874C27.722 15.7119 27.8025 16.2865 27.8025 16.9145H28.8025ZM28.5246 14.9055C28.3416 14.2717 28.0574 13.7092 27.6677 13.2254L26.8889 13.8527C27.1879 14.2239 27.4143 14.6648 27.5638 15.1829L28.5246 14.9055ZM27.6655 13.2227C27.2698 12.7384 26.7734 12.3628 26.1849 12.0953L25.7711 13.0057C26.2275 13.2131 26.598 13.4966 26.8911 13.8554L27.6655 13.2227ZM26.1911 12.0982C25.595 11.8173 24.9138 11.6853 24.1611 11.6853V12.6853C24.7977 12.6853 25.3278 12.7968 25.7648 13.0028L26.1911 12.0982ZM24.1611 11.6853C23.5387 11.6853 22.9318 11.8129 22.3438 12.0639L22.7365 12.9836C23.2054 12.7834 23.6791 12.6853 24.1611 12.6853V11.6853ZM22.3419 12.0647C21.7573 12.3172 21.2371 12.6791 20.7833 13.1461L21.5004 13.843C21.866 13.4669 22.278 13.1816 22.7384 12.9828L22.3419 12.0647ZM20.7834 13.146C20.3176 13.6251 19.9516 14.2042 19.6808 14.8748L20.608 15.2493C20.8359 14.6848 21.1349 14.219 21.5004 13.8431L20.7834 13.146ZM19.6814 14.8732C19.4036 15.5544 19.2703 16.3149 19.2703 17.1461H20.2703C20.2703 16.4217 20.3864 15.7928 20.6074 15.2508L19.6814 14.8732ZM19.2703 17.1461V17.5202H20.2703V17.1461H19.2703ZM19.2703 17.5202C19.2703 18.2481 19.3929 18.9317 19.6438 19.5656L20.5737 19.1975C20.3733 18.6914 20.2703 18.1341 20.2703 17.5202H19.2703ZM19.6438 19.5656C19.8923 20.1932 20.2419 20.7428 20.6942 21.2084L21.4115 20.5116C21.0562 20.1459 20.7765 19.7099 20.5737 19.1975L19.6438 19.5656ZM20.6942 21.2084C21.1482 21.6758 21.6905 22.0371 22.3146 22.2933L22.6944 21.3682C22.1905 21.1614 21.7649 20.8754 21.4115 20.5116L20.6942 21.2084ZM22.3163 22.294C22.9518 22.5522 23.6399 22.6781 24.3748 22.6781V21.6781C23.756 21.6781 23.1972 21.5725 22.6927 21.3675L22.3163 22.294ZM24.1611 14.0391C24.5223 14.0391 24.803 14.1051 25.0206 14.2161L25.4747 13.3252C25.0867 13.1274 24.643 13.0391 24.1611 13.0391V14.0391ZM25.024 14.2178C25.2739 14.3428 25.4713 14.5011 25.625 14.6908L26.4022 14.0617C26.1521 13.7527 25.8389 13.5072 25.4713 13.3234L25.024 14.2178ZM25.625 14.6908C25.7839 14.8872 25.9142 15.1285 26.0105 15.4225L26.9608 15.1112C26.8315 14.7165 26.647 14.364 26.4022 14.0617L25.625 14.6908ZM26.0113 15.425C26.1104 15.7224 26.1548 15.9863 26.1548 16.2198H27.1548C27.1548 15.8596 27.0865 15.4882 26.96 15.1088L26.0113 15.425ZM26.1548 16.2198V16.3H27.1548V16.2198H26.1548ZM26.6548 15.8H21.4714V16.8H26.6548V15.8ZM21.9661 16.3726C22.0256 15.9667 22.1264 15.6241 22.2617 15.3384L21.358 14.9103C21.1727 15.3015 21.0478 15.7427 20.9767 16.2274L21.9661 16.3726ZM22.2601 15.3417C22.4053 15.041 22.5762 14.7979 22.769 14.6051L22.0619 13.898C21.7797 14.1802 21.5469 14.519 21.3596 14.907L22.2601 15.3417ZM22.7645 14.6096C22.9569 14.422 23.169 14.2838 23.4027 14.1903L23.0313 13.2619C22.6713 13.4059 22.3491 13.618 22.0664 13.8936L22.7645 14.6096ZM23.4106 14.1871C23.6442 14.089 23.8929 14.0391 24.1611 14.0391V13.0391C23.7643 13.0391 23.3836 13.1138 23.0234 13.2651L23.4106 14.1871ZM31.0367 19.2212L30.5574 19.3636L30.5578 19.3649L31.0367 19.2212ZM31.8027 20.7709L32.204 20.4727L32.2014 20.4692L31.8027 20.7709ZM35.5789 22.0623L35.4644 21.5756L35.4554 21.5778L35.5789 22.0623ZM36.4072 21.7506L36.6473 22.1892L36.65 22.1877L36.4072 21.7506ZM36.8525 21.4389L36.5323 21.0547L36.5244 21.0616L36.8525 21.4389ZM37.2533 21.047H37.7533V19.7163L36.877 20.7178L37.2533 21.047ZM36.5675 23.7813L36.2188 23.4229L36.2187 23.423L36.5675 23.7813ZM35.757 24.28L35.5883 23.8093L35.5883 23.8093L35.757 24.28ZM34.0381 24.378L34.1438 23.8891L34.1311 23.8867L34.0381 24.378ZM32.7289 23.7545L33.0426 23.3651L33.0359 23.3599L32.7289 23.7545ZM32.1055 23.14L32.4903 22.8208L32.1135 22.3664L31.7273 22.8129L32.1055 23.14ZM31.2505 24.1286L30.8723 23.8015L30.6178 24.0958L30.8405 24.4148L31.2505 24.1286ZM32.0342 24.9213L31.7459 25.3298L31.7496 25.3323L32.0342 24.9213ZM32.9961 25.4289L33.1818 24.9646L33.1717 24.9607L32.9961 25.4289ZM33.9669 25.705L34.0579 25.2133L34.0491 25.2118L33.9669 25.705ZM37.7698 24.7431L38.1144 25.1055L38.1174 25.1026L37.7698 24.7431ZM38.5981 23.4873L38.1354 23.2978L38.1335 23.3026L38.5981 23.4873ZM38.9009 12.3634H39.4009V11.8634H38.9009V12.3634ZM37.4047 12.3634V11.8634H36.9414L36.9061 12.3254L37.4047 12.3634ZM37.3245 13.4144L36.9325 13.7247L37.7259 14.7269L37.8231 13.4524L37.3245 13.4144ZM36.9594 13.0225L36.6145 13.3847L36.623 13.3925L36.9594 13.0225ZM36.5586 12.7108L36.2834 13.1284L36.2936 13.1348L36.5586 12.7108ZM35.6769 12.3189L35.5431 12.8007L35.5453 12.8013L35.6769 12.3189ZM31.0278 15.1244L30.5481 14.9833L30.5472 14.9864L31.0278 15.1244ZM32.5597 15.7656L32.073 15.6507L32.0719 15.6557L32.5597 15.7656ZM33.0317 14.6345L33.4501 14.9084L33.4513 14.9065L33.0317 14.6345ZM33.8333 13.8686L33.5852 13.4345L33.5818 13.4364L33.8333 13.8686ZM35.7748 13.6905L35.6242 14.1674L35.6358 14.1708L35.7748 13.6905ZM36.3894 13.9666L36.6699 13.5525L36.6604 13.5464L36.3894 13.9666ZM37.2533 14.9552H37.7533V14.831L37.6952 14.7212L37.2533 14.9552ZM37.2533 19.3727L37.6979 19.6013L37.7533 19.4937V19.3727H37.2533ZM36.3983 20.388L36.6787 20.802L36.685 20.7976L36.3983 20.388ZM35.7748 20.6819L35.9139 21.1622L35.9219 21.1598L35.7748 20.6819ZM33.8333 20.5037L33.5818 20.936L33.5878 20.9393L33.8333 20.5037ZM33.0317 19.7378L33.4513 19.4658L33.4477 19.4605L33.0317 19.7378ZM32.5597 18.6245L32.0719 18.7345L32.0734 18.741L32.5597 18.6245ZM30.2695 17.1016V17.2886H31.2695V17.1016H30.2695ZM30.2695 17.2886C30.2695 18.0207 30.3643 18.7133 30.5574 19.3636L31.516 19.0789C31.3529 18.5298 31.2695 17.934 31.2695 17.2886H30.2695ZM30.5578 19.3649C30.7509 20.0086 31.0313 20.5802 31.404 21.0727L32.2014 20.4692C31.909 20.0829 31.6788 19.6214 31.5156 19.0776L30.5578 19.3649ZM31.4014 21.0692C31.7717 21.5675 32.2298 21.9618 32.7726 22.2468L33.2374 21.3614C32.8302 21.1476 32.4867 20.8531 32.204 20.4727L31.4014 21.0692ZM32.7726 22.2468C33.326 22.5373 33.9383 22.6781 34.5992 22.6781V21.6781C34.0845 21.6781 33.634 21.5696 33.2374 21.3614L32.7726 22.2468ZM34.5992 22.6781C34.9862 22.6781 35.3547 22.6355 35.7024 22.5469L35.4554 21.5778C35.1975 21.6436 34.9128 21.6781 34.5992 21.6781V22.6781ZM35.6934 22.5491C36.036 22.4684 36.3549 22.3493 36.6473 22.1892L36.167 21.3121C35.9607 21.4251 35.7274 21.5137 35.4644 21.5756L35.6934 22.5491ZM36.65 22.1877C36.8403 22.082 37.0174 21.9581 37.1806 21.8162L36.5244 21.0616C36.4145 21.1572 36.2947 21.2412 36.1644 21.3135L36.65 22.1877ZM37.1726 21.823C37.3356 21.6871 37.488 21.5381 37.6296 21.3763L36.877 20.7178C36.7692 20.841 36.6544 20.9532 36.5324 21.0548L37.1726 21.823ZM36.7533 21.047V21.8753H37.7533V21.047H36.7533ZM36.7533 21.8753C36.7533 22.2441 36.7005 22.5515 36.6063 22.806L37.544 23.1533C37.6873 22.7666 37.7533 22.3378 37.7533 21.8753H36.7533ZM36.6063 22.806C36.5104 23.065 36.3793 23.2667 36.2188 23.4229L36.9162 24.1396C37.195 23.8683 37.4025 23.5356 37.544 23.1533L36.6063 22.806ZM36.2187 23.423C36.0475 23.5897 35.8398 23.7192 35.5883 23.8093L35.9258 24.7507C36.3036 24.6152 36.6363 24.4122 36.9163 24.1395L36.2187 23.423ZM35.5883 23.8093C35.3362 23.8997 35.0412 23.9492 34.6972 23.9492V24.9492C35.1369 24.9492 35.5485 24.8859 35.9258 24.7507L35.5883 23.8093ZM34.6972 23.9492C34.5138 23.9492 34.3296 23.9294 34.1438 23.8893L33.9325 24.8667C34.1861 24.9215 34.4412 24.9492 34.6972 24.9492V23.9492ZM34.1311 23.8867C33.9544 23.8533 33.7735 23.7952 33.5878 23.7099L33.1703 24.6186C33.424 24.7351 33.6824 24.8195 33.9452 24.8693L34.1311 23.8867ZM33.5878 23.7099C33.4103 23.6283 33.2284 23.5149 33.0426 23.3652L32.4152 24.1439C32.6569 24.3386 32.9084 24.4982 33.1703 24.6186L33.5878 23.7099ZM33.0359 23.3599C32.8551 23.2192 32.6728 23.0409 32.4903 22.8208L31.7206 23.4592C31.9419 23.726 32.1753 23.9573 32.4219 24.1492L33.0359 23.3599ZM31.7273 22.8129L30.8723 23.8015L31.6286 24.4557L32.4836 23.4671L31.7273 22.8129ZM30.8405 24.4148C31.0921 24.7753 31.3941 25.0814 31.7459 25.3297L32.3226 24.5128C32.0687 24.3336 31.8482 24.1113 31.6604 23.8424L30.8405 24.4148ZM31.7496 25.3323C32.0903 25.5682 32.4473 25.7571 32.8205 25.8971L33.1717 24.9607C32.8799 24.8513 32.5957 24.7018 32.3188 24.5102L31.7496 25.3323ZM32.8104 25.8931C33.1676 26.036 33.5258 26.1384 33.8847 26.1982L34.0491 25.2118C33.7667 25.1647 33.4777 25.083 33.1818 24.9647L32.8104 25.8931ZM33.8758 26.1966C34.2179 26.26 34.5343 26.2941 34.8219 26.2941V25.2941C34.6107 25.2941 34.3571 25.2688 34.0579 25.2134L33.8758 26.1966ZM34.8219 26.2941C35.4767 26.2941 36.0867 26.1977 36.6466 25.9977L36.3103 25.056C35.8726 25.2123 35.3783 25.2941 34.8219 25.2941V26.2941ZM36.6466 25.9977C37.2071 25.7976 37.6986 25.5008 38.1144 25.1055L37.4253 24.3808C37.1167 24.6742 36.7473 24.8999 36.3103 25.056L36.6466 25.9977ZM38.1174 25.1026C38.5281 24.7055 38.8425 24.2261 39.0627 23.6721L38.1335 23.3026C37.9619 23.7342 37.7241 24.092 37.4223 24.3836L38.1174 25.1026ZM39.0608 23.6769C39.2916 23.1135 39.4009 22.4832 39.4009 21.7952H38.4009C38.4009 22.3778 38.3084 22.8756 38.1354 23.2978L39.0608 23.6769ZM39.4009 21.7952V12.3634H38.4009V21.7952H39.4009ZM38.9009 11.8634H37.4047V12.8634H38.9009V11.8634ZM36.9061 12.3254L36.826 13.3763L37.8231 13.4524L37.9032 12.4015L36.9061 12.3254ZM37.7166 13.104C37.5873 12.9408 37.4471 12.7901 37.2957 12.6525L36.623 13.3925C36.7329 13.4924 36.8361 13.603 36.9325 13.7247L37.7166 13.104ZM37.3042 12.6604C37.1557 12.519 36.9954 12.3942 36.8236 12.2868L36.2936 13.1348C36.4068 13.2055 36.5137 13.2885 36.6145 13.3846L37.3042 12.6604ZM36.8338 12.2933C36.5249 12.0897 36.1818 11.9384 35.8084 11.8365L35.5453 12.8013C35.825 12.8776 36.0698 12.9874 36.2834 13.1283L36.8338 12.2933ZM35.8107 11.8371C35.4402 11.7342 35.0412 11.6853 34.617 11.6853V12.6853C34.9648 12.6853 35.2723 12.7255 35.5431 12.8007L35.8107 11.8371ZM34.617 11.6853C33.9479 11.6853 33.3308 11.8216 32.777 12.1055L33.233 12.9954C33.6292 12.7924 34.0867 12.6853 34.617 12.6853V11.6853ZM32.777 12.1055C32.2344 12.3835 31.7735 12.7706 31.397 13.2615L32.1905 13.8701C32.479 13.494 32.8256 13.2043 33.233 12.9954L32.777 12.1055ZM31.397 13.2615C31.0217 13.7507 30.741 14.3277 30.5481 14.9833L31.5075 15.2655C31.6709 14.7098 31.9008 14.2477 32.1905 13.8701L31.397 13.2615ZM30.5472 14.9864C30.3604 15.6371 30.2695 16.3434 30.2695 17.1016H31.2695C31.2695 16.4229 31.3509 15.811 31.5084 15.2624L30.5472 14.9864ZM32.9172 17.2886V17.1016H31.9172V17.2886H32.9172ZM32.9172 17.1016C32.9172 16.6664 32.9612 16.2581 33.0475 15.8755L32.0719 15.6557C31.9681 16.1163 31.9172 16.5986 31.9172 17.1016H32.9172ZM33.0463 15.8805C33.1356 15.5025 33.2719 15.1806 33.4501 14.9084L32.6134 14.3607C32.3641 14.7416 32.1857 15.1737 32.0731 15.6507L33.0463 15.8805ZM33.4513 14.9065C33.6169 14.6509 33.8268 14.4508 34.0847 14.3008L33.5818 13.4364C33.1866 13.6664 32.8621 13.9769 32.6121 14.3626L33.4513 14.9065ZM34.0814 14.3027C34.324 14.1641 34.6324 14.0836 35.0267 14.0836V13.0836C34.4948 13.0836 34.0076 13.1931 33.5852 13.4345L34.0814 14.3027ZM35.0267 14.0836C35.2565 14.0836 35.4542 14.1136 35.6243 14.1673L35.9254 13.2137C35.6442 13.1249 35.3432 13.0836 35.0267 13.0836V14.0836ZM35.6358 14.1708C35.8181 14.2235 35.9779 14.2962 36.1183 14.3867L36.6604 13.5464C36.4327 13.3995 36.1828 13.288 35.9139 13.2102L35.6358 14.1708ZM36.109 14.3805C36.2567 14.4806 36.3865 14.5964 36.4996 14.7284L37.2588 14.0776C37.0869 13.877 36.8902 13.7019 36.6698 13.5526L36.109 14.3805ZM36.4996 14.7284C36.617 14.8653 36.7211 15.0185 36.8114 15.1891L37.6952 14.7212C37.5717 14.4881 37.4264 14.2731 37.2588 14.0776L36.4996 14.7284ZM36.7533 14.9552V19.3727H37.7533V14.9552H36.7533ZM36.8086 19.144C36.7175 19.3212 36.6125 19.4807 36.494 19.6239L37.2644 20.2614C37.4309 20.0602 37.5753 19.8398 37.6979 19.6013L36.8086 19.144ZM36.494 19.6239C36.3793 19.7625 36.2519 19.8801 36.1115 19.9784L36.685 20.7976C36.9009 20.6465 37.0941 20.4672 37.2644 20.2614L36.494 19.6239ZM36.1179 19.974C35.9783 20.0685 35.8162 20.146 35.6278 20.204L35.9219 21.1598C36.1966 21.0752 36.4501 20.9568 36.6787 20.8019L36.1179 19.974ZM35.6358 20.2016C35.4638 20.2514 35.2565 20.2798 35.0089 20.2798V21.2798C35.3313 21.2798 35.6346 21.243 35.9139 21.1622L35.6358 20.2016ZM35.0089 20.2798C34.619 20.2798 34.3156 20.2017 34.0788 20.0682L33.5878 20.9393C34.0041 21.174 34.4845 21.2798 35.0089 21.2798V20.2798ZM34.0847 20.0716C33.8268 19.9215 33.6169 19.7214 33.4513 19.4659L32.6121 20.0098C32.8621 20.3955 33.1866 20.706 33.5818 20.9359L34.0847 20.0716ZM33.4477 19.4605C33.2705 19.1946 33.1348 18.8794 33.0459 18.5081L32.0734 18.741C32.1864 19.2128 32.3654 19.6397 32.6157 20.0152L33.4477 19.4605ZM33.0475 18.5146C32.9612 18.132 32.9172 17.7238 32.9172 17.2886H31.9172C31.9172 17.7915 31.9681 18.2739 32.0719 18.7345L33.0475 18.5146ZM48.3594 22L47.9165 22.232L48.0568 22.5H48.3594V22ZM50.0783 22V22.5H50.5783V22H50.0783ZM50.0783 21.8575H50.5783V21.7612L50.5425 21.6718L50.0783 21.8575ZM49.8289 20.9223L49.3355 21.0032L49.3357 21.0045L49.8289 20.9223ZM48.6444 12.9869L48.9584 12.5977L48.9509 12.5918L48.6444 12.9869ZM47.4242 12.3902L47.2844 12.8703L47.2901 12.8718L47.4242 12.3902ZM44.2892 12.4347L44.124 11.9628L44.1222 11.9634L44.2892 12.4347ZM43.0958 13.0848L42.7792 12.6979L42.7784 12.6985L43.0958 13.0848ZM42.3298 14.0022L41.8873 13.7693L41.8842 13.7755L42.3298 14.0022ZM42.0627 15.0353L41.5627 15.0268L41.5541 15.5353H42.0627V15.0353ZM43.7192 15.0353V15.5353H44.2192V15.0353H43.7192ZM43.8617 14.4564L43.4201 14.2218L43.4174 14.2271L43.8617 14.4564ZM44.9305 13.637L44.7789 13.1606L44.7757 13.1616L44.9305 13.637ZM46.7562 13.6459L46.6042 14.1223L46.6071 14.1232L46.7562 13.6459ZM47.4777 14.02L47.8012 13.6387L47.7943 13.633L47.4777 14.02ZM48.0922 16.1575V16.6575H48.5922V16.1575H48.0922ZM44.4673 16.3534L44.3511 15.8671L44.3498 15.8674L44.4673 16.3534ZM43.078 16.9412L42.7977 16.5272L42.7934 16.5302L43.078 16.9412ZM42.1784 17.9387L41.738 17.7021L41.7353 17.7072L42.1784 17.9387ZM42.0983 20.4592L41.6406 20.6609L41.645 20.6702L42.0983 20.4592ZM42.7752 21.3498L43.1089 20.9773L43.1005 20.9702L42.7752 21.3498ZM43.8172 21.9555L43.6469 22.4256L43.649 22.4263L43.8172 21.9555ZM46.8898 21.813L47.0959 22.2685L47.1001 22.2666L46.8898 21.813ZM47.5578 21.4211L47.2672 21.0142L47.2616 21.0183L47.5578 21.4211ZM48.1189 20.9491L48.617 20.9051L48.5228 19.838L47.7654 20.5955L48.1189 20.9491ZM48.1991 21.5369L47.7076 21.629L47.7093 21.638L47.7113 21.647L48.1991 21.5369ZM43.9953 20.2722L44.3351 19.9052L44.3275 19.8985L43.9953 20.2722ZM43.6302 19.7556L43.163 19.9343L43.1678 19.946L43.6302 19.7556ZM43.648 18.4286L43.1979 18.2104L43.1928 18.2217L43.648 18.4286ZM44.0577 17.9209L44.37 18.3114L44.3723 18.3096L44.0577 17.9209ZM45.0641 17.4756L45.174 17.9634L45.179 17.9622L45.0641 17.4756ZM48.0922 17.3242H48.5922V16.8242H48.0922V17.3242ZM48.0922 19.2747L48.5394 19.4983L48.5922 19.3927V19.2747H48.0922ZM47.7003 19.8269L48.0601 20.1742L48.0658 20.168L47.7003 19.8269ZM47.1125 20.29L47.3665 20.7207L47.3714 20.7177L47.1125 20.29ZM48.3594 22.5H50.0783V21.5H48.3594V22.5ZM50.5783 22V21.8575H49.5783V22H50.5783ZM50.5425 21.6718C50.4519 21.4452 50.377 21.1695 50.3221 20.8401L49.3357 21.0045C49.3996 21.3877 49.491 21.7355 49.614 22.0432L50.5425 21.6718ZM50.3223 20.8415C50.2667 20.5023 50.2398 20.1881 50.2398 19.8981H49.2398C49.2398 20.2494 49.2723 20.6181 49.3355 21.0032L50.3223 20.8415ZM50.2398 19.8981V15.4183H49.2398V19.8981H50.2398ZM50.2398 15.4183C50.2398 14.8176 50.1308 14.2682 49.8958 13.7839L48.9961 14.2205C49.153 14.5437 49.2398 14.9384 49.2398 15.4183H50.2398ZM49.8958 13.7839C49.6687 13.3161 49.356 12.9186 48.9584 12.5978L48.3304 13.376C48.6097 13.6014 48.8313 13.8808 48.9961 14.2205L49.8958 13.7839ZM48.9509 12.5918C48.5495 12.2804 48.0826 12.0545 47.5584 11.9085L47.2901 12.8718C47.7039 12.9871 48.0505 13.1589 48.3379 13.3819L48.9509 12.5918ZM47.564 11.9101C47.0445 11.7588 46.4893 11.6853 45.9012 11.6853V12.6853C46.4057 12.6853 46.8658 12.7483 47.2844 12.8702L47.564 11.9101ZM45.9012 11.6853C45.2558 11.6853 44.6612 11.7748 44.124 11.9628L44.4544 12.9066C44.8672 12.7621 45.3473 12.6853 45.9012 12.6853V11.6853ZM44.1222 11.9634C43.6083 12.1455 43.1576 12.3883 42.7792 12.6979L43.4124 13.4718C43.6871 13.247 44.032 13.0563 44.4563 12.906L44.1222 11.9634ZM42.7784 12.6985C42.4008 13.0086 42.1002 13.3649 41.8874 13.7693L42.7723 14.2351C42.9157 13.9626 43.1257 13.7073 43.4131 13.4712L42.7784 12.6985ZM41.8842 13.7755C41.6805 14.1758 41.5701 14.5944 41.5627 15.0268L42.5626 15.0438C42.5671 14.7756 42.6348 14.5054 42.7755 14.2289L41.8842 13.7755ZM42.0627 15.5353H43.7192V14.5353H42.0627V15.5353ZM44.2192 15.0353C44.2192 14.9154 44.2466 14.8008 44.306 14.6857L43.4174 14.2271C43.2868 14.4801 43.2192 14.7515 43.2192 15.0353H44.2192ZM44.3033 14.691C44.3691 14.567 44.4608 14.4583 44.5845 14.3634L43.9761 13.5698C43.7436 13.748 43.5562 13.9658 43.4202 14.2218L44.3033 14.691ZM44.5845 14.3634C44.7098 14.2673 44.8736 14.1814 45.0853 14.1125L44.7757 13.1616C44.4767 13.2589 44.2071 13.3927 43.9761 13.5698L44.5845 14.3634ZM45.0821 14.1135C45.286 14.0486 45.5275 14.0123 45.8122 14.0123V13.0123C45.4437 13.0123 45.0975 13.0592 44.7789 13.1606L45.0821 14.1135ZM45.8122 14.0123C46.1207 14.0123 46.3828 14.0516 46.6042 14.1223L46.9083 13.1696C46.5715 13.0621 46.2043 13.0123 45.8122 13.0123V14.0123ZM46.6071 14.1232C46.8418 14.1965 47.0227 14.2938 47.161 14.407L47.7943 13.633C47.5408 13.4256 47.2407 13.2735 46.9054 13.1687L46.6071 14.1232ZM47.1542 14.4013C47.2951 14.5208 47.4017 14.6613 47.4779 14.8262L48.3859 14.4072C48.2483 14.1091 48.0521 13.8517 47.8011 13.6387L47.1542 14.4013ZM47.4779 14.8262C47.5505 14.9835 47.5922 15.1717 47.5922 15.4005H48.5922C48.5922 15.0474 48.527 14.7131 48.3859 14.4072L47.4779 14.8262ZM47.5922 15.4005V16.1575H48.5922V15.4005H47.5922ZM48.0922 15.6575H46.2931V16.6575H48.0922V15.6575ZM46.2931 15.6575C45.5903 15.6575 44.9419 15.7259 44.3511 15.8671L44.5836 16.8397C45.0853 16.7198 45.654 16.6575 46.2931 16.6575V15.6575ZM44.3498 15.8674C43.7623 16.0095 43.2417 16.2266 42.7977 16.5272L43.3582 17.3553C43.6861 17.1333 44.0917 16.9586 44.5848 16.8394L44.3498 15.8674ZM42.7934 16.5302C42.3451 16.8405 41.9907 17.2318 41.738 17.7021L42.6189 18.1754C42.7937 17.85 43.039 17.5764 43.3626 17.3523L42.7934 16.5302ZM41.7353 17.7072C41.484 18.1882 41.3667 18.7333 41.3667 19.3281H42.3667C42.3667 18.866 42.4572 18.4849 42.6216 18.1703L41.7353 17.7072ZM41.3667 19.3281C41.3667 19.7974 41.4568 20.2436 41.6407 20.6608L42.5558 20.2576C42.431 19.9743 42.3667 19.6663 42.3667 19.3281H41.3667ZM41.645 20.6702C41.8357 21.0799 42.1051 21.4341 42.4498 21.7295L43.1005 20.9702C42.8633 20.7669 42.6815 20.5273 42.5516 20.2482L41.645 20.6702ZM42.4415 21.7223C42.7804 22.0258 43.1853 22.2583 43.6469 22.4256L43.9875 21.4854C43.6297 21.3557 43.3399 21.1845 43.1088 20.9774L42.4415 21.7223ZM43.649 22.4263C44.1264 22.5968 44.6475 22.6781 45.2066 22.6781V21.6781C44.7444 21.6781 44.3393 21.611 43.9854 21.4846L43.649 22.4263ZM45.2066 22.6781C45.5559 22.6781 45.8913 22.6419 46.2111 22.567L45.9832 21.5933C45.745 21.6491 45.4866 21.6781 45.2066 21.6781V22.6781ZM46.2111 22.567C46.5204 22.4946 46.8156 22.3954 47.0959 22.2685L46.6838 21.3574C46.4654 21.4562 46.2321 21.5351 45.9832 21.5933L46.2111 22.567ZM47.1001 22.2666C47.3717 22.1408 47.6234 21.9935 47.854 21.8239L47.2616 21.0183C47.0884 21.1456 46.8949 21.2596 46.6796 21.3593L47.1001 22.2666ZM47.8484 21.828C48.0768 21.6649 48.2851 21.4899 48.4725 21.3026L47.7654 20.5955C47.6202 20.7407 47.4545 20.8804 47.2672 21.0142L47.8484 21.828ZM47.6208 20.993C47.64 21.2103 47.6689 21.4223 47.7076 21.629L48.6905 21.4447C48.658 21.2714 48.6334 21.0916 48.617 20.9051L47.6208 20.993ZM47.7113 21.647C47.7594 21.8601 47.8255 22.0583 47.9165 22.232L48.8023 21.768C48.7627 21.6923 48.7218 21.5818 48.6868 21.4267L47.7113 21.647ZM45.447 20.2442C45.1684 20.2442 44.9429 20.208 44.7625 20.1464L44.4394 21.0927C44.7458 21.1974 45.0844 21.2442 45.447 21.2442V20.2442ZM44.7625 20.1464C44.5736 20.0819 44.4357 19.9986 44.335 19.9053L43.6556 20.6391C43.8755 20.8427 44.1414 20.991 44.4394 21.0927L44.7625 20.1464ZM44.3275 19.8985C44.225 19.8073 44.1472 19.6982 44.0925 19.5652L43.1678 19.946C43.2793 20.2168 43.445 20.452 43.6631 20.6459L44.3275 19.8985ZM44.0972 19.5771C44.0438 19.4376 44.0144 19.2791 44.0144 19.0966H43.0144C43.0144 19.3891 43.0621 19.6699 43.1631 19.9342L44.0972 19.5771ZM44.0144 19.0966C44.0144 18.9073 44.0479 18.7569 44.1031 18.6355L43.1928 18.2217C43.0699 18.4921 43.0144 18.7871 43.0144 19.0966H44.0144ZM44.0979 18.6467C44.1589 18.5209 44.2471 18.4097 44.37 18.3114L43.7453 17.5305C43.5119 17.7172 43.3271 17.9444 43.1981 18.2105L44.0979 18.6467ZM44.3723 18.3096C44.5449 18.1698 44.8026 18.0471 45.174 17.9634L44.9541 16.9879C44.4824 17.0942 44.0691 17.2683 43.7431 17.5323L44.3723 18.3096ZM45.179 17.9622C45.5596 17.8724 46.0182 17.8242 46.5603 17.8242V16.8242C45.9624 16.8242 45.4235 16.877 44.9492 16.989L45.179 17.9622ZM46.5603 17.8242H48.0922V16.8242H46.5603V17.8242ZM47.5922 17.3242V19.2747H48.5922V17.3242H47.5922ZM47.645 19.0511C47.5743 19.1924 47.473 19.3376 47.3348 19.4857L48.0658 20.168C48.2601 19.9599 48.4201 19.737 48.5394 19.4983L47.645 19.0511ZM47.3406 19.4796C47.2072 19.6177 47.046 19.7458 46.8536 19.8622L47.3714 20.7177C47.6302 20.5611 47.8609 20.3804 48.06 20.1742L47.3406 19.4796ZM46.8585 19.8593C46.6647 19.9736 46.4472 20.0679 46.2038 20.1403L46.4893 21.0987C46.8041 21.005 47.0972 20.8795 47.3665 20.7207L46.8585 19.8593ZM46.2038 20.1403C45.9755 20.2083 45.7242 20.2442 45.447 20.2442V21.2442C45.8111 21.2442 46.1595 21.197 46.4893 21.0987L46.2038 20.1403ZM53.24 8.32V7.82H52.74V8.32H53.24ZM53.24 9.75391H52.74V10.2539H53.24V9.75391ZM56.5175 9.75391H57.0175V9.25391H56.5175V9.75391ZM56.5175 20.575V21.075H57.0175V20.575H56.5175ZM53.24 20.575V20.075H52.74V20.575H53.24ZM53.24 22H52.74V22.5H53.24V22ZM61.3091 22V22.5H61.8091V22H61.3091ZM61.3091 20.575H61.8091V20.075H61.3091V20.575ZM58.1652 20.575H57.6652V21.075H58.1652V20.575ZM58.1652 8.32H58.6652V7.82H58.1652V8.32ZM52.74 8.32V9.75391H53.74V8.32H52.74ZM53.24 10.2539H56.5175V9.25391H53.24V10.2539ZM56.0175 9.75391V20.575H57.0175V9.75391H56.0175ZM56.5175 20.075H53.24V21.075H56.5175V20.075ZM52.74 20.575V22H53.74V20.575H52.74ZM53.24 22.5H61.3091V21.5H53.24V22.5ZM61.8091 22V20.575H60.8091V22H61.8091ZM61.3091 20.075H58.1652V21.075H61.3091V20.075ZM58.6652 20.575V8.32H57.6652V20.575H58.6652ZM58.1652 7.82H53.24V8.82H58.1652V7.82Z" fill="#30475E"/>
</g>
<rect x="70" width="58" height="30" fill="#F05454"/>
<g filter="url(#filter1_d)">
<path d="M78.6225 22H82.7728C83.325 21.9941 83.8594 21.908 84.3759 21.7417C84.8984 21.5755 85.3586 21.335 85.7564 21.0203C86.1542 20.7116 86.4719 20.3256 86.7094 19.8625C86.9469 19.3994 87.0627 18.865 87.0567 18.2594C87.0567 17.8734 86.9973 17.5142 86.8786 17.1817C86.7658 16.8492 86.6055 16.5494 86.3977 16.2822C86.2017 16.0387 85.9523 15.8161 85.6495 15.6142C85.3467 15.4123 85.032 15.2728 84.7055 15.1956V15.1689C85.0202 15.0323 85.2873 14.8869 85.507 14.7325C85.7327 14.5781 85.9375 14.3881 86.1216 14.1625C86.2997 13.9428 86.4392 13.6934 86.5402 13.4144C86.647 13.1353 86.7034 12.8266 86.7094 12.4881C86.7153 11.8825 86.5995 11.363 86.362 10.9295C86.1245 10.4961 85.8069 10.1398 85.4091 9.86078C85.0113 9.58172 84.557 9.37687 84.0464 9.24625C83.5358 9.10969 83.0133 9.03844 82.4789 9.0325H78.6225V22ZM80.2791 15.9348H82.9064C83.2567 15.9467 83.5833 16.0061 83.8861 16.113C84.1889 16.2198 84.4531 16.3712 84.6788 16.5672C84.9044 16.7691 85.0795 17.0125 85.2042 17.2975C85.3348 17.5825 85.3972 17.9091 85.3913 18.2772C85.3913 18.6394 85.32 18.963 85.1775 19.248C85.0409 19.533 84.8539 19.7734 84.6164 19.9694C84.3789 20.1653 84.1058 20.3197 83.797 20.4325C83.4883 20.5394 83.1617 20.5958 82.8173 20.6017H80.2791V15.9348ZM80.2791 14.5633V10.4397H82.5323C82.853 10.4456 83.1647 10.4872 83.4675 10.5644C83.7763 10.6416 84.0494 10.7603 84.2869 10.9206C84.5184 11.0869 84.7025 11.2977 84.8391 11.553C84.9816 11.8083 85.0528 12.117 85.0528 12.4792C85.0528 12.8177 84.9816 13.1145 84.8391 13.3698C84.6966 13.6252 84.5095 13.8389 84.278 14.0111C84.0464 14.1892 83.7822 14.3258 83.4853 14.4208C83.1884 14.5098 82.8856 14.5573 82.5769 14.5633H80.2791ZM95.9452 22H97.4414V12.3634H95.7848V19.2747C95.6958 19.4825 95.583 19.6755 95.4464 19.8536C95.3158 20.0258 95.1614 20.1742 94.9833 20.2989C94.7695 20.4533 94.5172 20.575 94.2263 20.6641C93.9353 20.7472 93.6058 20.7887 93.2377 20.7887C92.923 20.7887 92.6439 20.7472 92.4005 20.6641C92.163 20.5809 91.9611 20.4355 91.7948 20.2277C91.6286 20.0258 91.5039 19.7527 91.4208 19.4083C91.3377 19.0639 91.2961 18.6305 91.2961 18.108V12.3634H89.6484V18.0902C89.6484 18.8086 89.7256 19.4261 89.88 19.9427C90.0403 20.4533 90.2659 20.8748 90.5569 21.2073C90.8478 21.5398 91.1981 21.7862 91.6078 21.9466C92.0175 22.1009 92.4747 22.1781 92.9794 22.1781C93.6088 22.1781 94.1639 22.0475 94.6448 21.7862C95.1258 21.5191 95.5266 21.148 95.8472 20.673L95.9452 22ZM102.527 20.6552L108.343 13.5302V12.3634H100.505V13.7261H106.178L100.425 20.7887V22H108.663V20.6552H102.527ZM113.482 20.6552L119.297 13.5302V12.3634H111.46V13.7261H117.133L111.38 20.7887V22H119.618V20.6552H113.482Z" fill="#E8E8E8"/>
<path d="M78.6225 22H78.1225V22.5H78.6225V22ZM82.7728 22V22.5L82.7782 22.5L82.7728 22ZM84.3759 21.7417L84.2243 21.2653L84.2228 21.2658L84.3759 21.7417ZM85.7564 21.0203L85.4498 20.6253L85.4462 20.6282L85.7564 21.0203ZM87.0567 18.2594L86.5567 18.2594L86.5567 18.2643L87.0567 18.2594ZM86.8786 17.1817L86.405 17.3424L86.4077 17.3499L86.8786 17.1817ZM86.3977 16.2822L86.7924 15.9752L86.7872 15.9687L86.3977 16.2822ZM84.7055 15.1956H84.2055V15.5912L84.5905 15.6822L84.7055 15.1956ZM84.7055 15.1689L84.5064 14.7102L84.2055 14.8408V15.1689H84.7055ZM85.507 14.7325L85.2247 14.3198L85.2196 14.3234L85.507 14.7325ZM86.1216 14.1625L86.509 14.4786L86.5099 14.4774L86.1216 14.1625ZM86.5402 13.4144L86.0731 13.2355L86.07 13.2443L86.5402 13.4144ZM86.7094 12.4881L87.2093 12.4969L87.2094 12.493L86.7094 12.4881ZM86.362 10.9295L85.9235 11.1698L86.362 10.9295ZM84.0464 9.24625L83.9172 9.7293L83.9225 9.73065L84.0464 9.24625ZM82.4789 9.0325L82.4845 8.5325H82.4789V9.0325ZM78.6225 9.0325V8.5325H78.1225V9.0325H78.6225ZM80.2791 15.9348V15.4348H79.7791V15.9348H80.2791ZM82.9064 15.9348L82.9233 15.4351L82.9149 15.4348H82.9064V15.9348ZM84.6788 16.5672L85.0122 16.1945L85.0066 16.1897L84.6788 16.5672ZM85.2042 17.2975L84.7461 17.4979L84.7497 17.5058L85.2042 17.2975ZM85.3913 18.2772L84.8913 18.2691V18.2772H85.3913ZM85.1775 19.248L84.7302 19.0243L84.7266 19.0319L85.1775 19.248ZM83.797 20.4325L83.9606 20.9051L83.9686 20.9021L83.797 20.4325ZM82.8173 20.6017V21.1018L82.826 21.1016L82.8173 20.6017ZM80.2791 20.6017H79.7791V21.1017H80.2791V20.6017ZM80.2791 14.5633H79.7791V15.0633H80.2791V14.5633ZM80.2791 10.4397V9.93969H79.7791V10.4397H80.2791ZM82.5323 10.4397L82.5416 9.93969H82.5323V10.4397ZM83.4675 10.5644L83.344 11.0489L83.3462 11.0494L83.4675 10.5644ZM84.2869 10.9206L84.5785 10.5145L84.5726 10.5102L84.5666 10.5062L84.2869 10.9206ZM84.8391 11.553L84.3981 11.7888L84.4025 11.7967L84.8391 11.553ZM84.278 14.0111L83.9796 13.6098L83.9731 13.6148L84.278 14.0111ZM83.4853 14.4208L83.629 14.8998L83.6377 14.897L83.4853 14.4208ZM82.5769 14.5633V15.0634L82.5865 15.0632L82.5769 14.5633ZM78.6225 22.5H82.7728V21.5H78.6225V22.5ZM82.7782 22.5C83.3797 22.4935 83.9639 22.3996 84.5291 22.2177L84.2228 21.2658C83.7548 21.4164 83.2703 21.4946 82.7674 21.5L82.7782 22.5ZM84.5275 22.2182C85.1029 22.0351 85.6178 21.7675 86.0666 21.4125L85.4462 20.6282C85.0994 20.9025 84.694 21.1158 84.2243 21.2653L84.5275 22.2182ZM86.063 21.4153C86.5205 21.0602 86.8846 20.6166 87.1543 20.0907L86.2645 19.6343C86.0592 20.0347 85.7879 20.3629 85.4498 20.6253L86.063 21.4153ZM87.1543 20.0907C87.4344 19.5445 87.5633 18.9278 87.5567 18.2545L86.5567 18.2643C86.562 18.8022 86.4594 19.2543 86.2645 19.6343L87.1543 20.0907ZM87.5567 18.2594C87.5567 17.8215 87.4892 17.4048 87.3495 17.0136L86.4077 17.3499C86.5055 17.6236 86.5567 17.9254 86.5567 18.2594H87.5567ZM87.3521 17.0211C87.222 16.6377 87.0357 16.2881 86.7923 15.9752L86.003 16.5892C86.1753 16.8107 86.3095 17.0607 86.4051 17.3424L87.3521 17.0211ZM86.7872 15.9687C86.5545 15.6796 86.2653 15.4238 85.9269 15.1982L85.3722 16.0302C85.6394 16.2084 85.8489 16.3979 86.0082 16.5957L86.7872 15.9687ZM85.9269 15.1982C85.5788 14.9661 85.2096 14.801 84.8205 14.709L84.5905 15.6822C84.8544 15.7446 85.1147 15.8586 85.3722 16.0302L85.9269 15.1982ZM85.2055 15.1956V15.1689H84.2055V15.1956H85.2055ZM84.9045 15.6276C85.2422 15.481 85.5407 15.3199 85.7945 15.1416L85.2196 14.3234C85.034 14.4538 84.7981 14.5836 84.5064 14.7102L84.9045 15.6276ZM85.7894 15.1452C86.057 14.9621 86.2967 14.7388 86.509 14.4786L85.7341 13.8464C85.5783 14.0374 85.4084 14.1942 85.2247 14.3198L85.7894 15.1452ZM86.5099 14.4774C86.7249 14.2122 86.8914 13.9134 87.0103 13.5844L86.07 13.2443C85.9871 13.4735 85.8744 13.6734 85.7332 13.8476L86.5099 14.4774ZM87.0071 13.5932C87.1373 13.2531 87.2025 12.8859 87.2093 12.4969L86.2095 12.4794C86.2044 12.7673 86.1567 13.0175 86.0732 13.2356L87.0071 13.5932ZM87.2094 12.493C87.2159 11.8209 87.0875 11.213 86.8005 10.6893L85.9235 11.1698C86.1116 11.513 86.2147 11.9441 86.2094 12.4832L87.2094 12.493ZM86.8005 10.6893C86.5268 10.1898 86.1579 9.7753 85.6962 9.45145L85.1219 10.2701C85.4559 10.5044 85.7222 10.8024 85.9235 11.1698L86.8005 10.6893ZM85.6962 9.45145C85.2449 9.13489 84.7345 8.90617 84.1703 8.76185L83.9225 9.73065C84.3796 9.84758 84.7776 10.0285 85.1219 10.2701L85.6962 9.45145ZM84.1756 8.76322C83.6242 8.61575 83.0601 8.53893 82.4845 8.53253L82.4734 9.53247C82.9664 9.53795 83.4474 9.60362 83.9172 9.72927L84.1756 8.76322ZM82.4789 8.5325H78.6225V9.5325H82.4789V8.5325ZM78.1225 9.0325V22H79.1225V9.0325H78.1225ZM80.2791 16.4348H82.9064V15.4348H80.2791V16.4348ZM82.8895 16.4346C83.1934 16.4449 83.4692 16.496 83.7197 16.5845L84.0525 15.6415C83.6974 15.5161 83.32 15.4486 82.9233 15.4351L82.8895 16.4346ZM83.7197 16.5845C83.9677 16.672 84.1762 16.7929 84.3509 16.9447L85.0066 16.1897C84.7301 15.9496 84.4101 15.7677 84.0525 15.6415L83.7197 16.5845ZM84.3454 16.9398C84.5161 17.0925 84.6494 17.2767 84.7461 17.4979L85.6623 17.0971C85.5097 16.7483 85.2927 16.4456 85.0121 16.1946L84.3454 16.9398ZM84.7497 17.5058C84.8443 17.7121 84.8963 17.9627 84.8913 18.2691L85.8912 18.2853C85.8981 17.8554 85.8254 17.4529 85.6588 17.0892L84.7497 17.5058ZM84.8913 18.2772C84.8913 18.5724 84.8336 18.8177 84.7303 19.0244L85.6247 19.4716C85.8064 19.1082 85.8913 18.7063 85.8913 18.2772H84.8913ZM84.7266 19.0319C84.6206 19.2532 84.4782 19.4352 84.2982 19.5837L84.9346 20.3551C85.2296 20.1117 85.4613 19.8128 85.6284 19.464L84.7266 19.0319ZM84.2982 19.5837C84.1073 19.7412 83.8845 19.8682 83.6254 19.9629L83.9686 20.9021C84.327 20.7712 84.6505 20.5895 84.9346 20.3551L84.2982 19.5837ZM83.6335 19.96C83.3772 20.0487 83.1032 20.0967 82.8087 20.1018L82.826 21.1016C83.2202 21.0948 83.5993 21.03 83.9606 20.905L83.6335 19.96ZM82.8173 20.1017H80.2791V21.1017H82.8173V20.1017ZM80.7791 20.6017V15.9348H79.7791V20.6017H80.7791ZM80.7791 14.5633V10.4397H79.7791V14.5633H80.7791ZM80.2791 10.9397H82.5323V9.93969H80.2791V10.9397ZM82.5231 10.9396C82.8062 10.9448 83.0795 10.9815 83.344 11.0489L83.591 10.0799C83.2499 9.99291 82.8998 9.9464 82.5416 9.93977L82.5231 10.9396ZM83.3462 11.0494C83.6047 11.1141 83.823 11.2107 84.0071 11.335L84.5666 10.5062C84.2758 10.3099 83.9478 10.1691 83.5888 10.0793L83.3462 11.0494ZM83.9953 11.3268C84.1637 11.4477 84.2971 11.5998 84.3982 11.7888L85.28 11.3171C85.1079 10.9955 84.8732 10.726 84.5785 10.5145L83.9953 11.3268ZM84.4025 11.7967C84.4946 11.9617 84.5528 12.1822 84.5528 12.4792H85.5528C85.5528 12.0518 85.4686 11.6549 85.2757 11.3093L84.4025 11.7967ZM84.5528 12.4792C84.5528 12.7459 84.4972 12.9563 84.4025 13.1262L85.2757 13.6135C85.4659 13.2727 85.5528 12.8894 85.5528 12.4792H84.5528ZM84.4025 13.1262C84.2939 13.3206 84.1537 13.4804 83.9796 13.6099L84.5763 14.4123C84.8653 14.1974 85.0992 13.9297 85.2757 13.6135L84.4025 13.1262ZM83.9731 13.6148C83.7904 13.7554 83.5784 13.866 83.3329 13.9446L83.6377 14.897C83.9859 14.7856 84.3025 14.6231 84.5828 14.4074L83.9731 13.6148ZM83.3416 13.9419C83.0881 14.0179 82.8304 14.0583 82.5673 14.0634L82.5865 15.0632C82.9408 15.0564 83.2888 15.0018 83.629 14.8997L83.3416 13.9419ZM82.5769 14.0633H80.2791V15.0633H82.5769V14.0633ZM95.9452 22L95.4465 22.0368L95.4807 22.5H95.9452V22ZM97.4414 22V22.5H97.9414V22H97.4414ZM97.4414 12.3634H97.9414V11.8634H97.4414V12.3634ZM95.7848 12.3634V11.8634H95.2848V12.3634H95.7848ZM95.7848 19.2747L96.2444 19.4716L96.2848 19.3773V19.2747H95.7848ZM95.4464 19.8536L95.0496 19.5494L95.0481 19.5514L95.4464 19.8536ZM94.9833 20.2989L94.6965 19.8892L94.6905 19.8936L94.9833 20.2989ZM94.2263 20.6641L94.3636 21.1449L94.3726 21.1422L94.2263 20.6641ZM92.4005 20.6641L92.2353 21.136L92.2389 21.1372L92.4005 20.6641ZM91.7948 20.2277L92.1853 19.9153L92.1808 19.9098L91.7948 20.2277ZM91.4208 19.4083L90.9347 19.5256L91.4208 19.4083ZM91.2961 12.3634H91.7961V11.8634H91.2961V12.3634ZM89.6484 12.3634V11.8634H89.1484V12.3634H89.6484ZM89.88 19.9427L89.4009 20.0858L89.403 20.0924L89.88 19.9427ZM90.5569 21.2073L90.1806 21.5366L90.5569 21.2073ZM91.6078 21.9466L91.4256 22.4122L91.4315 22.4144L91.6078 21.9466ZM94.6448 21.7862L94.8835 22.2256L94.8877 22.2233L94.6448 21.7862ZM95.8472 20.673L96.3458 20.6362L96.2396 19.1978L95.4328 20.3932L95.8472 20.673ZM95.9452 22.5H97.4414V21.5H95.9452V22.5ZM97.9414 22V12.3634H96.9414V22H97.9414ZM97.4414 11.8634H95.7848V12.8634H97.4414V11.8634ZM95.2848 12.3634V19.2747H96.2848V12.3634H95.2848ZM95.3253 19.0777C95.2525 19.2476 95.1607 19.4045 95.0496 19.5494L95.8432 20.1578C96.0053 19.9464 96.1391 19.7174 96.2444 19.4716L95.3253 19.0777ZM95.0481 19.5514C94.949 19.6819 94.8324 19.7942 94.6966 19.8893L95.27 20.7085C95.4904 20.5542 95.6825 20.3696 95.8448 20.1558L95.0481 19.5514ZM94.6905 19.8936C94.5275 20.0113 94.3263 20.1105 94.0799 20.186L94.3726 21.1422C94.7081 21.0395 95.0115 20.8953 95.276 20.7042L94.6905 19.8936ZM94.0889 20.1833C93.8511 20.2513 93.569 20.2887 93.2377 20.2887V21.2887C93.6426 21.2887 94.0196 21.2431 94.3636 21.1448L94.0889 20.1833ZM93.2377 20.2887C92.9661 20.2887 92.7433 20.2528 92.562 20.1909L92.2389 21.1372C92.5445 21.2416 92.8798 21.2887 93.2377 21.2887V20.2887ZM92.5656 20.1921C92.4219 20.1418 92.2964 20.0543 92.1853 19.9153L91.4044 20.54C91.6258 20.8167 91.904 21.02 92.2353 21.136L92.5656 20.1921ZM92.1808 19.9098C92.0766 19.7832 91.9782 19.5865 91.9068 19.291L90.9347 19.5256C91.0296 19.9188 91.1806 20.2683 91.4089 20.5455L92.1808 19.9098ZM91.9068 19.291C91.8362 18.9985 91.7961 18.6077 91.7961 18.108H90.7961C90.7961 18.6532 90.8391 19.1293 90.9347 19.5256L91.9068 19.291ZM91.7961 18.108V12.3634H90.7961V18.108H91.7961ZM91.2961 11.8634H89.6484V12.8634H91.2961V11.8634ZM89.1484 12.3634V18.0902H90.1484V12.3634H89.1484ZM89.1484 18.0902C89.1484 18.842 89.2289 19.5103 89.4009 20.0858L90.3591 19.7995C90.2223 19.3419 90.1484 18.7752 90.1484 18.0902H89.1484ZM89.403 20.0924C89.5797 20.6555 89.8354 21.1421 90.1806 21.5366L90.9332 20.8781C90.6965 20.6076 90.5009 20.251 90.357 19.7929L89.403 20.0924ZM90.1806 21.5366C90.5241 21.9292 90.9409 22.2225 91.4256 22.4122L91.79 21.4809C91.4554 21.35 91.1715 21.1505 90.9332 20.8781L90.1806 21.5366ZM91.4315 22.4144C91.9055 22.593 92.4235 22.6781 92.9794 22.6781V21.6781C92.5258 21.6781 92.1295 21.6088 91.7841 21.4787L91.4315 22.4144ZM92.9794 22.6781C93.6795 22.6781 94.319 22.5323 94.8835 22.2256L94.4062 21.3469C94.0088 21.5627 93.538 21.6781 92.9794 21.6781V22.6781ZM94.8877 22.2233C95.4403 21.9163 95.8989 21.4901 96.2616 20.9527L95.4328 20.3932C95.1543 20.8058 94.8113 21.1218 94.402 21.3492L94.8877 22.2233ZM95.3485 20.7098L95.4465 22.0368L96.4438 21.9632L96.3458 20.6362L95.3485 20.7098ZM102.527 20.6552L102.14 20.339L101.473 21.1552H102.527V20.6552ZM108.343 13.5302L108.73 13.8463L108.843 13.7083V13.5302H108.343ZM108.343 12.3634H108.843V11.8634H108.343V12.3634ZM100.505 12.3634V11.8634H100.005V12.3634H100.505ZM100.505 13.7261H100.005V14.2261H100.505V13.7261ZM106.178 13.7261L106.566 14.0419L107.231 13.2261H106.178V13.7261ZM100.425 20.7887L100.037 20.473L99.925 20.6109V20.7887H100.425ZM100.425 22H99.925V22.5H100.425V22ZM108.663 22V22.5H109.163V22H108.663ZM108.663 20.6552H109.163V20.1552H108.663V20.6552ZM102.914 20.9713L108.73 13.8463L107.955 13.214L102.14 20.339L102.914 20.9713ZM108.843 13.5302V12.3634H107.843V13.5302H108.843ZM108.343 11.8634H100.505V12.8634H108.343V11.8634ZM100.005 12.3634V13.7261H101.005V12.3634H100.005ZM100.505 14.2261H106.178V13.2261H100.505V14.2261ZM105.791 13.4103L100.037 20.473L100.813 21.1045L106.566 14.0419L105.791 13.4103ZM99.925 20.7887V22H100.925V20.7887H99.925ZM100.425 22.5H108.663V21.5H100.425V22.5ZM109.163 22V20.6552H108.163V22H109.163ZM108.663 20.1552H102.527V21.1552H108.663V20.1552ZM113.482 20.6552L113.094 20.339L112.428 21.1552H113.482V20.6552ZM119.297 13.5302L119.685 13.8463L119.797 13.7083V13.5302H119.297ZM119.297 12.3634H119.797V11.8634H119.297V12.3634ZM111.46 12.3634V11.8634H110.96V12.3634H111.46ZM111.46 13.7261H110.96V14.2261H111.46V13.7261ZM117.133 13.7261L117.521 14.0419L118.185 13.2261H117.133V13.7261ZM111.38 20.7887L110.992 20.473L110.88 20.6109V20.7887H111.38ZM111.38 22H110.88V22.5H111.38V22ZM119.618 22V22.5H120.118V22H119.618ZM119.618 20.6552H120.118V20.1552H119.618V20.6552ZM113.869 20.9713L119.685 13.8463L118.91 13.214L113.094 20.339L113.869 20.9713ZM119.797 13.5302V12.3634H118.797V13.5302H119.797ZM119.297 11.8634H111.46V12.8634H119.297V11.8634ZM110.96 12.3634V13.7261H111.96V12.3634H110.96ZM111.46 14.2261H117.133V13.2261H111.46V14.2261ZM116.745 13.4103L110.992 20.473L111.767 21.1045L117.521 14.0419L116.745 13.4103ZM110.88 20.7887V22H111.88V20.7887H110.88ZM111.38 22.5H119.618V21.5H111.38V22.5ZM120.118 22V20.6552H119.118V22H120.118ZM119.618 20.1552H113.482V21.1552H119.618V20.1552Z" fill="#E8E8E8"/>
</g>
<defs>
<filter id="filter0_d" x="8.87672" y="7.82" width="56.9323" height="22.4741" filterUnits="userSpaceOnUse" color-interpolation-filters="sRGB">
<feFlood flood-opacity="0" result="BackgroundImageFix"/>
<feColorMatrix in="SourceAlpha" type="matrix" values="0 0 0 0 0 0 0 0 0 0 0 0 0 0 0 0 0 0 127 0"/>
<feOffset dx="2" dy="2"/>
<feGaussianBlur stdDeviation="1"/>
<feColorMatrix type="matrix" values="0 0 0 0 0 0 0 0 0 0 0 0 0 0 0 0 0 0 0.25 0"/>
<feBlend mode="normal" in2="BackgroundImageFix" result="effect1_dropShadow"/>
<feBlend mode="normal" in="SourceGraphic" in2="effect1_dropShadow" result="shape"/>
</filter>
<filter id="filter1_d" x="78.1225" y="8.5325" width="45.9955" height="18.1456" filterUnits="userSpaceOnUse" color-interpolation-filters="sRGB">
<feFlood flood-opacity="0" result="BackgroundImageFix"/>
<feColorMatrix in="SourceAlpha" type="matrix" values="0 0 0 0 0 0 0 0 0 0 0 0 0 0 0 0 0 0 127 0"/>
<feOffset dx="2" dy="2"/>
<feGaussianBlur stdDeviation="1"/>
<feColorMatrix type="matrix" values="0 0 0 0 0 0 0 0 0 0 0 0 0 0 0 0 0 0 0.25 0"/>
<feBlend mode="normal" in2="BackgroundImageFix" result="effect1_dropShadow"/>
<feBlend mode="normal" in="SourceGraphic" in2="effect1_dropShadow" result="shape"/>
</filter>
</defs>
</svg>
