<svg width="128" height="128" viewBox="0 0 128 128" fill="none" xmlns="http://www.w3.org/2000/svg">
<rect width="128" height="128" rx="20" fill="#30475E"/>
<g filter="url(#filter0_bi)">
<path d="M66 79V49H96.3371C96.3371 49 111.506 49 111.506 64C111.506 79 96.3371 79 96.3371 79C96.3371 79 111.506 79 111.506 94C111.506 109 96.3371 109 96.3371 109H66V79Z" fill="#E8E8E8" stroke="#E8E8E8" stroke-width="2"/>
<path d="M81.1685 59H90.6489C90.6489 59 96.3371 59 96.3371 65.5C96.3371 72 90.6489 72 90.6489 72H81.1685V59Z" fill="#30475E" stroke="#E8E8E8" stroke-width="2"/>
<path d="M81.1685 86H90.6489C90.6489 86 96.3371 86 96.3371 92.5C96.3371 99 90.6489 99 90.6489 99H81.1685V86Z" fill="#30475E" stroke="#E8E8E8" stroke-width="2"/>
<path d="M17 79V19H36.5V40.4286V53.2857C36.5 53.2857 36.5 61.8571 46.25 61.8571H56V79H17Z" fill="#E8E8E8" stroke="#E8E8E8" stroke-width="2"/>
</g>
<defs>
<filter id="filter0_bi" x="12" y="14" width="104.506" height="100" filterUnits="userSpaceOnUse" color-interpolation-filters="sRGB">
<feFlood flood-opacity="0" result="BackgroundImageFix"/>
<feGaussianBlur in="BackgroundImage" stdDeviation="2"/>
<feComposite in2="SourceAlpha" operator="in" result="effect1_backgroundBlur"/>
<feBlend mode="normal" in="SourceGraphic" in2="effect1_backgroundBlur" result="shape"/>
<feColorMatrix in="SourceAlpha" type="matrix" values="0 0 0 0 0 0 0 0 0 0 0 0 0 0 0 0 0 0 127 0" result="hardAlpha"/>
<feOffset dy="4"/>
<feGaussianBlur stdDeviation="2"/>
<feComposite in2="hardAlpha" operator="arithmetic" k2="-1" k3="1"/>
<feColorMatrix type="matrix" values="0 0 0 0 0 0 0 0 0 0 0 0 0 0 0 0 0 0 0.25 0"/>
<feBlend mode="normal" in2="shape" result="effect2_innerShadow"/>
</filter>
</defs>
</svg>
