<svg width="123" height="40" viewBox="0 0 123 40" fill="none" xmlns="http://www.w3.org/2000/svg">
<g filter="url(#filter0_d)">
<path d="M6.49171 21.8017V10.2325H4.84405V23.2H12.833V21.8017H6.49171ZM19.8422 23.3781C20.7803 23.3781 21.567 23.1911 22.2023 22.817C22.8436 22.437 23.3245 22.0036 23.6451 21.5167L22.6387 20.733C22.3359 21.1248 21.9559 21.4395 21.4987 21.677C21.0416 21.9145 20.5191 22.0333 19.9312 22.0333C19.4859 22.0333 19.0792 21.9502 18.7111 21.7839C18.343 21.6177 18.0283 21.3891 17.767 21.0981C17.5117 20.825 17.3098 20.5103 17.1614 20.1541C17.0189 19.7978 16.9269 19.3852 16.8853 18.9161V18.8538H23.7698V18.1145C23.7698 17.4436 23.6837 16.8202 23.5116 16.2442C23.3453 15.6683 23.09 15.1666 22.7456 14.7391C22.4012 14.3175 21.9678 13.988 21.4453 13.7505C20.9287 13.507 20.3231 13.3853 19.6284 13.3853C19.0762 13.3853 18.5359 13.4981 18.0075 13.7237C17.485 13.9494 17.0189 14.273 16.6092 14.6945C16.1936 15.122 15.8611 15.6445 15.6117 16.262C15.3623 16.8736 15.2376 17.5683 15.2376 18.3461V18.7202C15.2376 19.3911 15.3505 20.0116 15.5761 20.5816C15.8017 21.1516 16.1164 21.6444 16.5201 22.06C16.9239 22.4756 17.4078 22.7992 17.9719 23.0308C18.5419 23.2623 19.1653 23.3781 19.8422 23.3781ZM19.6284 14.7391C20.05 14.7391 20.4122 14.8162 20.715 14.9706C21.0237 15.125 21.2791 15.3269 21.4809 15.5763C21.6828 15.8256 21.8401 16.1225 21.953 16.4669C22.0658 16.8053 22.1222 17.123 22.1222 17.4198V17.5H16.9387C17.0041 17.0547 17.1169 16.6628 17.2772 16.3244C17.4434 15.98 17.6453 15.6891 17.8828 15.4516C18.1203 15.22 18.3875 15.0448 18.6844 14.9261C18.9812 14.8014 19.2959 14.7391 19.6284 14.7391ZM26.2369 18.3016V18.4886C26.2369 19.1773 26.3259 19.8216 26.5041 20.4213C26.6822 21.015 26.9375 21.5316 27.27 21.9709C27.5966 22.4103 27.9973 22.7547 28.4723 23.0041C28.9473 23.2534 29.4787 23.3781 30.0666 23.3781C30.4169 23.3781 30.7434 23.3395 31.0462 23.2623C31.3491 23.1911 31.6251 23.0872 31.8745 22.9506C32.0348 22.8616 32.1833 22.7577 32.3198 22.6389C32.4623 22.5202 32.5959 22.3895 32.7206 22.247V23.0753C32.7206 23.4909 32.6612 23.8591 32.5425 24.1797C32.4237 24.5003 32.2545 24.7675 32.0348 24.9813C31.8092 25.2009 31.5391 25.3672 31.2244 25.48C30.9097 25.5928 30.5564 25.6492 30.1645 25.6492C29.9448 25.6492 29.7251 25.6255 29.5055 25.578C29.2858 25.5364 29.0661 25.4652 28.8464 25.3642C28.6267 25.2633 28.41 25.1267 28.1962 24.9545C27.9825 24.7883 27.7747 24.5834 27.5728 24.34L26.7178 25.3286C26.9375 25.6433 27.1987 25.9075 27.5016 26.1213C27.8103 26.335 28.1309 26.5042 28.4634 26.6289C28.79 26.7595 29.1136 26.8516 29.4342 26.905C29.7548 26.9644 30.0398 26.9941 30.2892 26.9941C30.8948 26.9941 31.447 26.905 31.9458 26.7269C32.4445 26.5488 32.875 26.2875 33.2372 25.9431C33.5934 25.5988 33.8695 25.1802 34.0655 24.6873C34.2673 24.1945 34.3683 23.6305 34.3683 22.9952V13.5634H32.872L32.7919 14.6144C32.6791 14.4719 32.5573 14.3412 32.4267 14.2225C32.302 14.1037 32.1684 13.9998 32.0259 13.9108C31.7647 13.7386 31.4708 13.608 31.1442 13.5189C30.8236 13.4298 30.4703 13.3853 30.0844 13.3853C29.4847 13.3853 28.9473 13.507 28.4723 13.7505C27.9973 13.9939 27.5936 14.3323 27.2611 14.7658C26.9286 15.1992 26.6733 15.7188 26.4951 16.3244C26.323 16.9241 26.2369 17.5831 26.2369 18.3016ZM27.8845 18.4886V18.3016C27.8845 17.8325 27.932 17.3872 28.027 16.9656C28.128 16.5381 28.2853 16.1611 28.4991 15.8345C28.7069 15.5139 28.9741 15.2586 29.3006 15.0686C29.6331 14.8786 30.0309 14.7836 30.4941 14.7836C30.7672 14.7836 31.0166 14.8192 31.2422 14.8905C31.4678 14.9558 31.6726 15.0478 31.8567 15.1666C32.0408 15.2913 32.2041 15.4367 32.3466 15.603C32.4891 15.7692 32.6137 15.9533 32.7206 16.1552V20.5727C32.6137 20.7805 32.4891 20.9705 32.3466 21.1427C32.2041 21.3148 32.0437 21.4633 31.8656 21.588C31.6816 21.7127 31.4737 21.8106 31.2422 21.8819C31.0166 21.9472 30.7612 21.9798 30.4762 21.9798C30.0191 21.9798 29.6272 21.8878 29.3006 21.7038C28.9741 21.5138 28.7069 21.2584 28.4991 20.9378C28.2853 20.6172 28.128 20.2461 28.027 19.8245C27.932 19.403 27.8845 18.9577 27.8845 18.4886ZM43.8267 23.2H45.5456V23.0575C45.4387 22.7903 45.3556 22.4786 45.2962 22.1223C45.2369 21.7602 45.2072 21.4188 45.2072 21.0981V16.6183C45.2072 16.078 45.1092 15.6059 44.9133 15.2022C44.7173 14.7984 44.4501 14.46 44.1117 14.1869C43.7673 13.9197 43.3606 13.7208 42.8916 13.5902C42.4225 13.4536 41.9148 13.3853 41.3686 13.3853C40.7689 13.3853 40.2316 13.4684 39.7566 13.6347C39.2875 13.8009 38.8897 14.0177 38.5631 14.2848C38.2306 14.558 37.9753 14.8637 37.7972 15.2022C37.625 15.5406 37.5359 15.885 37.53 16.2353H39.1866C39.1866 16.0334 39.2341 15.8405 39.3291 15.6564C39.43 15.4664 39.5695 15.3031 39.7476 15.1666C39.9258 15.03 40.1425 14.9202 40.3978 14.837C40.6591 14.7539 40.953 14.7123 41.2795 14.7123C41.6298 14.7123 41.9445 14.7569 42.2236 14.8459C42.5086 14.935 42.7491 15.0597 42.945 15.22C43.1409 15.3863 43.2923 15.5852 43.3992 15.8167C43.5061 16.0483 43.5595 16.3095 43.5595 16.6005V17.3575H41.7605C41.0895 17.3575 40.4809 17.4228 39.9347 17.5534C39.3944 17.6841 38.9312 17.88 38.5453 18.1413C38.1594 18.4084 37.8595 18.7409 37.6458 19.1388C37.438 19.5366 37.3341 19.9997 37.3341 20.5281C37.3341 20.9319 37.4112 21.3089 37.5656 21.6592C37.7259 22.0036 37.9516 22.3005 38.2425 22.5498C38.5275 22.8052 38.8748 23.007 39.2845 23.1555C39.7001 23.3039 40.1633 23.3781 40.6739 23.3781C40.9886 23.3781 41.2855 23.3455 41.5645 23.2802C41.8436 23.2148 42.1078 23.1258 42.3572 23.013C42.6006 22.9002 42.8233 22.7695 43.0251 22.6211C43.233 22.4727 43.42 22.3153 43.5862 22.1491C43.6041 22.3509 43.6308 22.5469 43.6664 22.7369C43.708 22.9209 43.7614 23.0753 43.8267 23.2ZM40.9144 21.9442C40.5937 21.9442 40.3117 21.9027 40.0683 21.8195C39.8248 21.7364 39.623 21.6206 39.4626 21.4722C39.3023 21.3297 39.1806 21.1575 39.0975 20.9556C39.0203 20.7538 38.9817 20.5341 38.9817 20.2966C38.9817 20.0472 39.0262 19.8245 39.1153 19.6286C39.2103 19.4327 39.3469 19.2634 39.525 19.1209C39.7744 18.9191 40.1098 18.7706 40.5314 18.6756C40.9589 18.5747 41.4576 18.5242 42.0276 18.5242H43.5595V20.4747C43.4645 20.6647 43.3339 20.8488 43.1676 21.0269C43.0014 21.1991 42.8055 21.3534 42.5798 21.49C42.3483 21.6266 42.093 21.7364 41.8139 21.8195C41.5348 21.9027 41.235 21.9442 40.9144 21.9442ZM48.7073 9.52V10.9539H51.9848V21.775H48.7073V23.2H56.7764V21.775H53.6325V9.52H48.7073Z" fill="#30475E"/>
<path d="M6.49171 21.8017H6.11171V22.1817H6.49171V21.8017ZM6.49171 10.2325H6.87171V9.8525H6.49171V10.2325ZM4.84405 10.2325V9.8525H4.46405V10.2325H4.84405ZM4.84405 23.2H4.46405V23.58H4.84405V23.2ZM12.833 23.2V23.58H13.213V23.2H12.833ZM12.833 21.8017H13.213V21.4217H12.833V21.8017ZM6.87171 21.8017V10.2325H6.11171V21.8017H6.87171ZM6.49171 9.8525H4.84405V10.6125H6.49171V9.8525ZM4.46405 10.2325V23.2H5.22405V10.2325H4.46405ZM4.84405 23.58H12.833V22.82H4.84405V23.58ZM13.213 23.2V21.8017H12.453V23.2H13.213ZM12.833 21.4217H6.49171V22.1817H12.833V21.4217ZM22.2023 22.817L22.3951 23.1445L22.3961 23.1439L22.2023 22.817ZM23.6451 21.5167L23.9625 21.7257L24.1556 21.4326L23.8786 21.2169L23.6451 21.5167ZM22.6387 20.733L22.8722 20.4332L22.5713 20.1988L22.3381 20.5006L22.6387 20.733ZM18.7111 21.7839L18.5547 22.1302L18.7111 21.7839ZM17.767 21.0981L18.0498 20.8442L18.0446 20.8386L17.767 21.0981ZM17.1614 20.1541L16.8085 20.2952L16.8106 20.3002L17.1614 20.1541ZM16.8853 18.9161H16.5053V18.9329L16.5068 18.9496L16.8853 18.9161ZM16.8853 18.8538V18.4738H16.5053V18.8538H16.8853ZM23.7698 18.8538V19.2338H24.1498V18.8538H23.7698ZM23.5116 16.2442L23.1464 16.3496L23.1475 16.3531L23.5116 16.2442ZM22.7456 14.7391L23.0415 14.5007L23.0399 14.4987L22.7456 14.7391ZM21.4453 13.7505L21.2833 14.0942L21.2881 14.0964L21.4453 13.7505ZM18.0075 13.7238L17.8583 13.3743L17.8568 13.3749L18.0075 13.7238ZM16.6092 14.6945L16.8817 14.9594L16.8817 14.9594L16.6092 14.6945ZM15.6117 16.262L15.9636 16.4055L15.9641 16.4043L15.6117 16.262ZM16.5201 22.06L16.7927 21.7952L16.5201 22.06ZM17.9719 23.0308L17.8276 23.3823L17.8288 23.3828L17.9719 23.0308ZM20.715 14.9706L20.5424 15.3092L20.545 15.3105L20.715 14.9706ZM21.953 16.4669L21.5918 16.5852L21.5925 16.587L21.953 16.4669ZM22.1222 17.5V17.88H22.5022V17.5H22.1222ZM16.9387 17.5L16.5628 17.4449L16.4989 17.88H16.9387V17.5ZM17.2772 16.3244L16.935 16.1592L16.9338 16.1617L17.2772 16.3244ZM17.8828 15.4516L17.6175 15.1795L17.6141 15.1829L17.8828 15.4516ZM18.6844 14.9261L18.8255 15.279L18.8315 15.2764L18.6844 14.9261ZM19.8422 23.7581C20.8299 23.7581 21.6875 23.5611 22.3951 23.1445L22.0095 22.4896C21.4465 22.8211 20.7307 22.9981 19.8422 22.9981V23.7581ZM22.3961 23.1439C23.0736 22.7425 23.6026 22.2723 23.9625 21.7257L23.3278 21.3077C23.0465 21.7349 22.6136 22.1316 22.0086 22.4901L22.3961 23.1439ZM23.8786 21.2169L22.8722 20.4332L22.4053 21.0328L23.4117 21.8165L23.8786 21.2169ZM22.3381 20.5006C22.0703 20.8471 21.7338 21.1267 21.3236 21.3398L21.6739 22.0142C22.178 21.7524 22.6015 21.4026 22.9394 20.9653L22.3381 20.5006ZM21.3236 21.3398C20.9277 21.5455 20.4667 21.6533 19.9312 21.6533V22.4133C20.5714 22.4133 21.1554 22.2836 21.6739 22.0142L21.3236 21.3398ZM19.9312 21.6533C19.5343 21.6533 19.1816 21.5795 18.8675 21.4376L18.5547 22.1302C18.9768 22.3209 19.4376 22.4133 19.9312 22.4133V21.6533ZM18.8675 21.4376C18.5458 21.2923 18.2746 21.0946 18.0498 20.8442L17.4843 21.352C17.7819 21.6835 18.1401 21.943 18.5547 22.1302L18.8675 21.4376ZM18.0446 20.8386C17.8213 20.5997 17.6437 20.3237 17.5122 20.0079L16.8106 20.3002C16.9759 20.6969 17.2022 21.0503 17.4894 21.3576L18.0446 20.8386ZM17.5142 20.0129C17.3882 19.6979 17.3028 19.3227 17.2638 18.8826L16.5068 18.9496C16.5509 19.4476 16.6496 19.8978 16.8086 20.2952L17.5142 20.0129ZM17.2653 18.9161V18.8538H16.5053V18.9161H17.2653ZM16.8853 19.2338H23.7698V18.4738H16.8853V19.2338ZM24.1498 18.8538V18.1145H23.3898V18.8538H24.1498ZM24.1498 18.1145C24.1498 17.411 24.0595 16.7505 23.8756 16.1354L23.1475 16.3531C23.308 16.8899 23.3898 17.4762 23.3898 18.1145H24.1498ZM23.8766 16.1388C23.6977 15.5189 23.4204 14.971 23.0415 14.5007L22.4497 14.9774C22.7596 15.3622 22.9929 15.8177 23.1465 16.3496L23.8766 16.1388ZM23.0399 14.4987C22.6566 14.0294 22.1753 13.6649 21.6025 13.4045L21.2881 14.0964C21.7603 14.3111 22.1459 14.6056 22.4513 14.9795L23.0399 14.4987ZM21.6073 13.4067C21.0303 13.1348 20.3672 13.0053 19.6284 13.0053V13.7653C20.279 13.7653 20.8272 13.8793 21.2833 14.0942L21.6073 13.4067ZM19.6284 13.0053C19.0229 13.0053 18.4319 13.1293 17.8583 13.3743L18.1567 14.0732C18.6399 13.8669 19.1296 13.7653 19.6284 13.7653V13.0053ZM17.8568 13.3749C17.2871 13.6209 16.7799 13.9736 16.3367 14.4297L16.8817 14.9594C17.2579 14.5723 17.6829 14.2778 18.1581 14.0726L17.8568 13.3749ZM16.3368 14.4296C15.883 14.8963 15.525 15.4619 15.2594 16.1197L15.9641 16.4043C16.1971 15.8272 16.5042 15.3477 16.8817 14.9594L16.3368 14.4296ZM15.2598 16.1186C14.9889 16.783 14.8576 17.5277 14.8576 18.3461H15.6176C15.6176 17.6089 15.7358 16.9642 15.9636 16.4055L15.2598 16.1186ZM14.8576 18.3461V18.7202H15.6176V18.3461H14.8576ZM14.8576 18.7202C14.8576 19.4344 14.9779 20.1029 15.2228 20.7214L15.9294 20.4417C15.723 19.9203 15.6176 19.3477 15.6176 18.7202H14.8576ZM15.2228 20.7214C15.4657 21.3352 15.8069 21.8712 16.2476 22.3248L16.7927 21.7952C16.4258 21.4176 16.1377 20.9679 15.9294 20.4417L15.2228 20.7214ZM16.2476 22.3248C16.6896 22.7798 17.2178 23.132 17.8276 23.3823L18.1162 22.6793C17.5978 22.4664 17.1582 22.1715 16.7927 21.7952L16.2476 22.3248ZM17.8288 23.3828C18.4486 23.6346 19.1212 23.7581 19.8422 23.7581V22.9981C19.2094 22.9981 18.6351 22.8901 18.1149 22.6787L17.8288 23.3828ZM19.6284 15.1191C20.0041 15.1191 20.3044 15.1878 20.5424 15.3092L20.8876 14.6321C20.52 14.4447 20.0958 14.3591 19.6284 14.3591V15.1191ZM20.545 15.3105C20.809 15.4425 21.0204 15.6113 21.1856 15.8153L21.7763 15.3372C21.5377 15.0425 21.2385 14.8075 20.8849 14.6307L20.545 15.3105ZM21.1856 15.8153C21.3548 16.0244 21.4916 16.2791 21.5918 16.5852L22.3141 16.3486C22.1887 15.9659 22.0108 15.6268 21.7763 15.3372L21.1856 15.8153ZM21.5925 16.587C21.6949 16.8943 21.7422 17.1711 21.7422 17.4198H22.5022C22.5022 17.0748 22.4367 16.7163 22.3135 16.3467L21.5925 16.587ZM21.7422 17.4198V17.5H22.5022V17.4198H21.7422ZM22.1222 17.12H16.9387V17.88H22.1222V17.12ZM17.3147 17.5551C17.3756 17.1398 17.4793 16.7854 17.6206 16.487L16.9338 16.1617C16.7545 16.5402 16.6325 16.9695 16.5628 17.4449L17.3147 17.5551ZM17.6194 16.4896C17.7696 16.1783 17.948 15.9238 18.1515 15.7203L17.6141 15.1829C17.3426 15.4544 17.1172 15.7817 16.935 16.1592L17.6194 16.4896ZM18.1481 15.7236C18.3513 15.5255 18.5766 15.3785 18.8255 15.2789L18.5432 14.5733C18.1983 14.7112 17.8893 14.9145 17.6175 15.1795L18.1481 15.7236ZM18.8315 15.2764C19.0803 15.172 19.3448 15.1191 19.6284 15.1191V14.3591C19.2471 14.3591 18.8822 14.4308 18.5372 14.5757L18.8315 15.2764ZM26.5041 20.4213L26.1398 20.5294L26.1401 20.5304L26.5041 20.4213ZM27.27 21.9709L27.575 21.7443L27.573 21.7416L27.27 21.9709ZM31.0462 23.2623L30.9592 22.8924L30.9524 22.8941L31.0462 23.2623ZM31.8745 22.9506L32.057 23.2839L32.0591 23.2828L31.8745 22.9506ZM32.3198 22.6389L32.0765 22.3469L32.0705 22.3522L32.3198 22.6389ZM32.7206 22.247H33.1006V21.2357L32.4346 21.9968L32.7206 22.247ZM32.0348 24.9813L31.7698 24.7089L31.7697 24.709L32.0348 24.9813ZM31.2244 25.48L31.0961 25.1223L31.2244 25.48ZM29.5055 25.578L29.5858 25.2064L29.5761 25.2046L29.5055 25.578ZM28.1962 24.9545L28.4347 24.6586L28.4295 24.6546L28.1962 24.9545ZM27.5728 24.34L27.8653 24.0974L27.5789 23.7521L27.2854 24.0914L27.5728 24.34ZM26.7178 25.3286L26.4304 25.08L26.237 25.3037L26.4062 25.5461L26.7178 25.3286ZM27.5016 26.1213L27.2824 26.4317L27.2853 26.4337L27.5016 26.1213ZM28.4634 26.6289L28.6046 26.276L28.5969 26.2731L28.4634 26.6289ZM29.4342 26.905L29.5034 26.5313L29.4967 26.5302L29.4342 26.905ZM33.2372 25.9431L33.499 26.2185L33.5013 26.2163L33.2372 25.9431ZM34.0655 24.6873L33.7138 24.5433L33.7123 24.5469L34.0655 24.6873ZM34.3683 13.5634H34.7483V13.1834H34.3683V13.5634ZM32.872 13.5634V13.1834H32.5199L32.4931 13.5345L32.872 13.5634ZM32.7919 14.6144L32.4939 14.8502L33.0969 15.6119L33.1708 14.6433L32.7919 14.6144ZM32.4267 14.2225L32.1646 14.4977L32.1711 14.5037L32.4267 14.2225ZM32.0259 13.9108L31.8167 14.2282L31.8245 14.233L32.0259 13.9108ZM31.1442 13.5189L31.0425 13.885L31.0442 13.8855L31.1442 13.5189ZM26.4951 16.3244L26.1306 16.2171L26.1299 16.2195L26.4951 16.3244ZM28.027 16.9656L27.6572 16.8783L27.6563 16.8821L28.027 16.9656ZM28.4991 15.8345L28.817 16.0426L28.8179 16.0412L28.4991 15.8345ZM29.3006 15.0686L29.1121 14.7387L29.1095 14.7401L29.3006 15.0686ZM31.2422 14.8905L31.1277 15.2529L31.1365 15.2555L31.2422 14.8905ZM31.8567 15.1666L32.0699 14.8519L32.0627 14.8472L31.8567 15.1666ZM32.7206 16.1552H33.1006V16.0608L33.0565 15.9774L32.7206 16.1552ZM32.7206 20.5727L33.0585 20.7464L33.1006 20.6646V20.5727H32.7206ZM31.8656 21.588L32.0788 21.9026L32.0835 21.8993L31.8656 21.588ZM31.2422 21.8819L31.3479 22.2469L31.3539 22.2451L31.2422 21.8819ZM29.3006 21.7038L29.1095 22.0322L29.114 22.0348L29.3006 21.7038ZM28.4991 20.9378L28.818 20.7311L28.8152 20.727L28.4991 20.9378ZM28.027 19.8245L27.6563 19.9081L27.6575 19.913L28.027 19.8245ZM25.8569 18.3016V18.4886H26.6169V18.3016H25.8569ZM25.8569 18.4886C25.8569 19.2103 25.9502 19.8913 26.1398 20.5294L26.8683 20.3131C26.7016 19.7518 26.6169 19.1444 26.6169 18.4886H25.8569ZM26.1401 20.5304C26.3296 21.1622 26.604 21.7206 26.967 22.2002L27.573 21.7416C27.271 21.3426 27.0348 20.8678 26.868 20.3121L26.1401 20.5304ZM26.965 22.1976C27.3249 22.6818 27.7692 23.0641 28.2957 23.3405L28.649 22.6676C28.2255 22.4453 27.8682 22.1388 27.575 21.7443L26.965 22.1976ZM28.2957 23.3405C28.8303 23.6212 29.4232 23.7581 30.0666 23.7581V22.9981C29.5343 22.9981 29.0644 22.8857 28.649 22.6676L28.2957 23.3405ZM30.0666 23.7581C30.4448 23.7581 30.8032 23.7165 31.1401 23.6306L30.9524 22.8941C30.6837 22.9626 30.389 22.9981 30.0666 22.9981V23.7581ZM31.1333 23.6322C31.4663 23.5539 31.775 23.4384 32.057 23.2839L31.692 22.6173C31.4753 22.736 31.2318 22.8283 30.9592 22.8924L31.1333 23.6322ZM32.0591 23.2828C32.2422 23.1811 32.4124 23.062 32.5692 22.9257L32.0705 22.3522C31.9542 22.4533 31.8275 22.5421 31.69 22.6184L32.0591 23.2828ZM32.5631 22.9308C32.7212 22.7991 32.8691 22.6544 33.0066 22.4973L32.4346 21.9968C32.3228 22.1246 32.2034 22.2413 32.0766 22.347L32.5631 22.9308ZM32.3406 22.247V23.0753H33.1006V22.247H32.3406ZM32.3406 23.0753C32.3406 23.4553 32.2863 23.7773 32.1861 24.0477L32.8988 24.3117C33.0362 23.9408 33.1006 23.5266 33.1006 23.0753H32.3406ZM32.1861 24.0477C32.0847 24.3215 31.9445 24.5389 31.7698 24.7089L32.2998 25.2536C32.5645 24.9961 32.7627 24.6791 32.8988 24.3117L32.1861 24.0477ZM31.7697 24.709C31.5855 24.8884 31.3628 25.0267 31.0961 25.1223L31.3526 25.8377C31.7153 25.7077 32.033 25.5135 32.2999 25.2535L31.7697 24.709ZM31.0961 25.1223C30.829 25.2181 30.5201 25.2692 30.1645 25.2692V26.0292C30.5927 26.0292 30.9904 25.9676 31.3526 25.8377L31.0961 25.1223ZM30.1645 25.2692C29.9725 25.2692 29.7797 25.2485 29.5858 25.2066L29.4252 25.9494C29.6706 26.0025 29.9172 26.0292 30.1645 26.0292V25.2692ZM29.5761 25.2046C29.3891 25.1692 29.1989 25.108 29.005 25.0189L28.6877 25.7095C28.9333 25.8223 29.1824 25.9036 29.4348 25.9513L29.5761 25.2046ZM29.005 25.0189C28.8174 24.9327 28.6272 24.8137 28.4346 24.6586L27.9579 25.2505C28.1928 25.4397 28.436 25.5939 28.6877 25.7095L29.005 25.0189ZM28.4295 24.6546C28.2408 24.5078 28.0524 24.3231 27.8653 24.0974L27.2803 24.5826C27.4969 24.8438 27.7242 25.0688 27.9629 25.2545L28.4295 24.6546ZM27.2854 24.0914L26.4304 25.08L27.0052 25.5772L27.8602 24.5886L27.2854 24.0914ZM26.4062 25.5461C26.6502 25.8956 26.9424 26.1917 27.2824 26.4317L27.7207 25.8108C27.4551 25.6233 27.2248 25.391 27.0294 25.1111L26.4062 25.5461ZM27.2853 26.4337C27.6183 26.6642 27.9666 26.8484 28.33 26.9847L28.5969 26.2731C28.2953 26.16 28.0023 26.0058 27.7179 25.8088L27.2853 26.4337ZM28.3223 26.9817C28.6722 27.1217 29.0221 27.2216 29.3717 27.2798L29.4967 26.5302C29.2051 26.4816 28.9078 26.3974 28.6046 26.2761L28.3223 26.9817ZM29.365 27.2786C29.7019 27.341 30.0108 27.3741 30.2892 27.3741V26.6141C30.0689 26.6141 29.8077 26.5877 29.5034 26.5314L29.365 27.2786ZM30.2892 27.3741C30.9322 27.3741 31.5284 27.2795 32.0736 27.0847L31.818 26.369C31.3657 26.5306 30.8574 26.6141 30.2892 26.6141V27.3741ZM32.0736 27.0847C32.6192 26.8899 33.0961 26.6016 33.499 26.2185L32.9753 25.6677C32.6538 25.9734 32.2698 26.2076 31.818 26.369L32.0736 27.0847ZM33.5013 26.2163C33.899 25.8319 34.2041 25.3671 34.4186 24.8277L33.7123 24.5469C33.5349 24.9933 33.2879 25.3656 32.9731 25.6699L33.5013 26.2163ZM34.4171 24.8314C34.6409 24.285 34.7483 23.6705 34.7483 22.9952H33.9883C33.9883 23.5904 33.8937 24.1041 33.7138 24.5433L34.4171 24.8314ZM34.7483 22.9952V13.5634H33.9883V22.9952H34.7483ZM34.3683 13.1834H32.872V13.9434H34.3683V13.1834ZM32.4931 13.5345L32.413 14.5855L33.1708 14.6433L33.2509 13.5923L32.4931 13.5345ZM33.0898 14.3785C32.9645 14.2203 32.8287 14.0744 32.6823 13.9413L32.1711 14.5037C32.286 14.6081 32.3936 14.7235 32.4939 14.8502L33.0898 14.3785ZM32.6888 13.9473C32.546 13.8113 32.3921 13.6915 32.2273 13.5885L31.8245 14.233C31.9447 14.3082 32.0581 14.3962 32.1646 14.4977L32.6888 13.9473ZM32.235 13.5935C31.9376 13.3975 31.6063 13.2511 31.2442 13.1523L31.0442 13.8855C31.3352 13.9649 31.5917 14.0797 31.8168 14.2281L32.235 13.5935ZM31.2459 13.1528C30.8874 13.0532 30.4993 13.0053 30.0844 13.0053V13.7653C30.4413 13.7653 30.7598 13.8065 31.0425 13.885L31.2459 13.1528ZM30.0844 13.0053C29.4319 13.0053 28.834 13.1381 28.299 13.4123L28.6456 14.0886C29.0607 13.8759 29.5374 13.7653 30.0844 13.7653V13.0053ZM28.299 13.4123C27.7727 13.682 27.3255 14.0574 26.9596 14.5345L27.5626 14.9971C27.8616 14.6072 28.222 14.3058 28.6456 14.0886L28.299 13.4123ZM26.9596 14.5345C26.5945 15.0103 26.3199 15.5735 26.1306 16.2172L26.8597 16.4316C27.0267 15.864 27.2626 15.3881 27.5626 14.9971L26.9596 14.5345ZM26.1299 16.2195C25.9466 16.858 25.8569 17.5529 25.8569 18.3016H26.6169C26.6169 17.6134 26.6993 16.9901 26.8604 16.4292L26.1299 16.2195ZM28.2645 18.4886V18.3016H27.5045V18.4886H28.2645ZM28.2645 18.3016C28.2645 17.8582 28.3094 17.4411 28.3977 17.0492L27.6563 16.8821C27.5546 17.3333 27.5045 17.8068 27.5045 18.3016H28.2645ZM28.3969 17.0529C28.4889 16.6631 28.6303 16.3279 28.817 16.0426L28.1811 15.6264C27.9403 15.9943 27.767 16.4132 27.6572 16.8783L28.3969 17.0529ZM28.8179 16.0412C28.9937 15.7701 29.2173 15.5567 29.4917 15.397L29.1095 14.7401C28.7308 14.9605 28.42 15.2578 28.1802 15.6279L28.8179 16.0412ZM29.4891 15.3985C29.7533 15.2476 30.0832 15.1636 30.4941 15.1636V14.4036C29.9786 14.4036 29.5129 14.5096 29.1121 14.7387L29.4891 15.3985ZM30.4941 15.1636C30.7342 15.1636 30.9443 15.1949 31.1277 15.2528L31.3566 14.5281C31.0888 14.4435 30.8001 14.4036 30.4941 14.4036V15.1636ZM31.1365 15.2555C31.3292 15.3113 31.4999 15.3886 31.6507 15.4859L32.0627 14.8472C31.8454 14.7071 31.6064 14.6003 31.3478 14.5255L31.1365 15.2555ZM31.6436 15.4812C31.8001 15.5872 31.9379 15.7101 32.058 15.8503L32.6351 15.3557C32.4702 15.1633 32.2815 14.9953 32.0698 14.852L31.6436 15.4812ZM32.058 15.8503C32.1815 15.9943 32.2905 16.1549 32.3848 16.333L33.0565 15.9774C32.937 15.7517 32.7966 15.5442 32.6351 15.3557L32.058 15.8503ZM32.3406 16.1552V20.5727H33.1006V16.1552H32.3406ZM32.3827 20.3989C32.2878 20.5834 32.178 20.7503 32.0538 20.9004L32.6393 21.3849C32.8001 21.1907 32.9397 20.9775 33.0585 20.7464L32.3827 20.3989ZM32.0538 20.9004C31.9324 21.047 31.7971 21.1721 31.6477 21.2767L32.0835 21.8993C32.2904 21.7545 32.4757 21.5826 32.6393 21.3849L32.0538 20.9004ZM31.6525 21.2734C31.5023 21.3751 31.3292 21.4575 31.1304 21.5187L31.3539 22.2451C31.6183 22.1637 31.8608 22.0502 32.0787 21.9026L31.6525 21.2734ZM31.1365 21.5169C30.9516 21.5704 30.7328 21.5998 30.4762 21.5998V22.3598C30.7897 22.3598 31.0815 22.324 31.3478 22.2469L31.1365 21.5169ZM30.4762 21.5998C30.0702 21.5998 29.7456 21.5183 29.4872 21.3727L29.114 22.0348C29.5088 22.2573 29.9679 22.3598 30.4762 22.3598V21.5998ZM29.4917 21.3753C29.2173 21.2156 28.9937 21.0023 28.8179 20.7311L28.1802 21.1445C28.42 21.5146 28.7308 21.8119 29.1095 22.0322L29.4917 21.3753ZM28.8152 20.727C28.6293 20.4481 28.4884 20.1194 28.3966 19.736L27.6575 19.913C27.7675 20.3728 27.9414 20.7863 28.1829 21.1486L28.8152 20.727ZM28.3977 19.741C28.3094 19.3491 28.2645 18.9319 28.2645 18.4886H27.5045C27.5045 18.9834 27.5546 19.4569 27.6563 19.9081L28.3977 19.741ZM43.8267 23.2L43.4901 23.3763L43.5968 23.58H43.8267V23.2ZM45.5456 23.2V23.58H45.9256V23.2H45.5456ZM45.5456 23.0575H45.9256V22.9843L45.8984 22.9164L45.5456 23.0575ZM45.2962 22.1223L44.9212 22.1838L44.9214 22.1848L45.2962 22.1223ZM44.1117 14.1869L44.3504 13.8911L44.3446 13.8866L44.1117 14.1869ZM42.8916 13.5902L42.7853 13.955L42.7896 13.9562L42.8916 13.5902ZM39.7565 13.6347L39.631 13.276L39.6296 13.2765L39.7565 13.6347ZM38.5631 14.2848L38.3225 13.9907L38.3219 13.9912L38.5631 14.2848ZM37.7972 15.2022L37.4609 15.0252L37.4585 15.0299L37.7972 15.2022ZM37.53 16.2353L37.15 16.2289L37.1435 16.6153H37.53V16.2353ZM39.1866 16.2353V16.6153H39.5666V16.2353H39.1866ZM39.3291 15.6564L38.9934 15.4781L38.9914 15.4821L39.3291 15.6564ZM40.3978 14.837L40.2826 14.4749L40.2802 14.4757L40.3978 14.837ZM42.2236 14.8459L42.108 15.208L42.1102 15.2086L42.2236 14.8459ZM42.945 15.22L43.1909 14.9302L43.1856 14.9259L42.945 15.22ZM43.5595 17.3575V17.7375H43.9395V17.3575H43.5595ZM39.9347 17.5534L39.8463 17.1839L39.8454 17.1841L39.9347 17.5534ZM38.5453 18.1413L38.3323 17.8266L38.329 17.8288L38.5453 18.1413ZM37.6458 19.1388L37.311 18.9589L37.309 18.9628L37.6458 19.1388ZM37.5656 21.6592L37.2178 21.8125L37.2211 21.8196L37.5656 21.6592ZM38.2425 22.5498L38.4961 22.2667L38.4898 22.2613L38.2425 22.5498ZM39.2845 23.1555L39.1551 23.5127L39.1567 23.5133L39.2845 23.1555ZM42.3572 23.013L42.5138 23.3592L42.517 23.3577L42.3572 23.013ZM43.0251 22.6211L42.8043 22.3118L42.8 22.3149L43.0251 22.6211ZM43.5862 22.1491L43.9648 22.1157L43.8932 21.3047L43.3175 21.8804L43.5862 22.1491ZM43.6664 22.7369L43.2927 22.807L43.2957 22.8206L43.6664 22.7369ZM39.4626 21.4722L39.7209 21.1933L39.7151 21.1882L39.4626 21.4722ZM39.0975 20.9556L38.7424 21.0914L38.7461 21.1003L39.0975 20.9556ZM39.1153 19.6286L38.7733 19.4628L38.7694 19.4713L39.1153 19.6286ZM39.525 19.1209L39.7624 19.4177L39.7641 19.4163L39.525 19.1209ZM40.5314 18.6756L40.6149 19.0463L40.6187 19.0455L40.5314 18.6756ZM43.5595 18.5242H43.9395V18.1442H43.5595V18.5242ZM43.5595 20.4747L43.8994 20.6446L43.9395 20.5644V20.4747H43.5595ZM43.1676 21.0269L43.4411 21.2909L43.4454 21.2862L43.1676 21.0269ZM42.5798 21.49L42.7729 21.8173L42.7766 21.8151L42.5798 21.49ZM43.8267 23.58H45.5456V22.82H43.8267V23.58ZM45.9256 23.2V23.0575H45.1656V23.2H45.9256ZM45.8984 22.9164C45.8039 22.68 45.727 22.3957 45.6711 22.0599L44.9214 22.1848C44.9842 22.5615 45.0736 22.9006 45.1928 23.1986L45.8984 22.9164ZM45.6712 22.0609C45.6147 21.7162 45.5872 21.3955 45.5872 21.0981H44.8272C44.8272 21.442 44.859 21.8042 44.9212 22.1838L45.6712 22.0609ZM45.5872 21.0981V16.6183H44.8272V21.0981H45.5872ZM45.5872 16.6183C45.5872 16.0321 45.4808 15.5012 45.2551 15.0363L44.5714 15.3681C44.7376 15.7107 44.8272 16.1239 44.8272 16.6183H45.5872ZM45.2551 15.0363C45.0356 14.5838 44.7337 14.2006 44.3504 13.8912L43.8731 14.4826C44.1665 14.7194 44.3991 15.013 44.5714 15.3681L45.2551 15.0363ZM44.3446 13.8866C43.957 13.5859 43.5045 13.3664 42.9935 13.2241L42.7896 13.9562C43.2167 14.0752 43.5777 14.2535 43.8788 14.4871L44.3446 13.8866ZM42.9978 13.2253C42.4904 13.0776 41.9466 13.0053 41.3686 13.0053V13.7653C41.8831 13.7653 42.3546 13.8296 42.7853 13.955L42.9978 13.2253ZM41.3686 13.0053C40.7341 13.0053 40.1533 13.0932 39.631 13.276L39.8821 13.9934C40.3098 13.8436 40.8037 13.7653 41.3686 13.7653V13.0053ZM39.6296 13.2765C39.1265 13.4548 38.6884 13.6913 38.3225 13.9907L38.8037 14.5789C39.0909 14.344 39.4485 14.147 39.8835 13.9929L39.6296 13.2765ZM38.3219 13.9912C37.9552 14.2925 37.6654 14.6367 37.4609 15.0252L38.1334 15.3792C38.2852 15.0908 38.5061 14.8235 38.8043 14.5785L38.3219 13.9912ZM37.4585 15.0299C37.2624 15.4154 37.157 15.8161 37.15 16.2289L37.9099 16.2418C37.9148 15.9539 37.9876 15.6659 38.1359 15.3745L37.4585 15.0299ZM37.53 16.6153H39.1866V15.8553H37.53V16.6153ZM39.5666 16.2353C39.5666 16.0957 39.5988 15.9623 39.6667 15.8307L38.9914 15.4821C38.8693 15.7186 38.8065 15.9712 38.8065 16.2353H39.5666ZM39.6646 15.8347C39.7389 15.6949 39.842 15.573 39.9788 15.4681L39.5164 14.865C39.297 15.0332 39.1211 15.2379 38.9935 15.4781L39.6646 15.8347ZM39.9788 15.4681C40.1168 15.3624 40.2933 15.2707 40.5154 15.1984L40.2802 14.4757C39.9917 14.5696 39.7347 14.6976 39.5164 14.865L39.9788 15.4681ZM40.513 15.1991C40.7307 15.1299 40.9848 15.0923 41.2795 15.0923V14.3323C40.9211 14.3323 40.5874 14.3779 40.2826 14.4749L40.513 15.1991ZM41.2795 15.0923C41.5981 15.0923 41.8728 15.1329 42.108 15.2079L42.3391 14.4839C42.0162 14.3809 41.6616 14.3323 41.2795 14.3323V15.0923ZM42.1102 15.2086C42.357 15.2858 42.5522 15.3896 42.7044 15.5141L43.1856 14.9259C42.9459 14.7298 42.6602 14.5842 42.3369 14.4832L42.1102 15.2086ZM42.6991 15.5098C42.8532 15.6405 42.9707 15.795 43.0542 15.976L43.7442 15.6575C43.614 15.3753 43.4286 15.132 43.1908 14.9302L42.6991 15.5098ZM43.0542 15.976C43.135 16.151 43.1795 16.3568 43.1795 16.6005H43.9395C43.9395 16.2623 43.8772 15.9455 43.7442 15.6575L43.0542 15.976ZM43.1795 16.6005V17.3575H43.9395V16.6005H43.1795ZM43.5595 16.9775H41.7605V17.7375H43.5595V16.9775ZM41.7605 16.9775C41.0653 16.9775 40.4265 17.0451 39.8463 17.1839L40.0231 17.923C40.5354 17.8005 41.1137 17.7375 41.7605 17.7375V16.9775ZM39.8454 17.1841C39.2692 17.3234 38.7623 17.5355 38.3323 17.8266L38.7583 18.4559C39.1001 18.2245 39.5195 18.0447 40.024 17.9228L39.8454 17.1841ZM38.329 17.8288C37.8957 18.1288 37.5544 18.506 37.311 18.9589L37.9805 19.3186C38.1647 18.9758 38.4231 18.6881 38.7616 18.4537L38.329 17.8288ZM37.309 18.9628C37.0681 19.4238 36.9541 19.9493 36.9541 20.5281H37.7141C37.7141 20.0501 37.8078 19.6493 37.9826 19.3147L37.309 18.9628ZM36.9541 20.5281C36.9541 20.9817 37.0411 21.4112 37.2179 21.8125L37.9133 21.506C37.7814 21.2066 37.7141 20.882 37.7141 20.5281H36.9541ZM37.2211 21.8196C37.4045 22.2136 37.6634 22.554 37.9952 22.8384L38.4898 22.2613C38.2397 22.0469 38.0473 21.7936 37.9101 21.4988L37.2211 21.8196ZM37.9889 22.8329C38.3148 23.1248 38.7059 23.35 39.1551 23.5127L39.414 22.7982C39.0437 22.664 38.7401 22.4855 38.496 22.2668L37.9889 22.8329ZM39.1567 23.5133C39.6192 23.6785 40.1264 23.7581 40.6739 23.7581V22.9981C40.2001 22.9981 39.7811 22.9293 39.4123 22.7976L39.1567 23.5133ZM40.6739 23.7581C41.0149 23.7581 41.3411 23.7227 41.6511 23.6502L41.4779 22.9102C41.2299 22.9682 40.9622 22.9981 40.6739 22.9981V23.7581ZM41.6511 23.6502C41.9531 23.5795 42.2409 23.4827 42.5138 23.3592L42.2006 22.6667C41.9747 22.7689 41.7341 22.8502 41.4779 22.9102L41.6511 23.6502ZM42.517 23.3577C42.7818 23.235 43.0266 23.0917 43.2503 22.9272L42.8 22.3149C42.62 22.4473 42.4194 22.5653 42.1974 22.6682L42.517 23.3577ZM43.246 22.9303C43.4694 22.7707 43.6727 22.6 43.8549 22.4178L43.3175 21.8804C43.1673 22.0306 42.9965 22.1746 42.8043 22.3119L43.246 22.9303ZM43.2077 22.1825C43.2266 22.396 43.2549 22.6042 43.2929 22.8069L44.0399 22.6668C44.0066 22.4895 43.9815 22.3058 43.9648 22.1157L43.2077 22.1825ZM43.2957 22.8206C43.3423 23.0267 43.4053 23.2144 43.4901 23.3763L44.1633 23.0237C44.1175 22.9363 44.0737 22.8152 44.0371 22.6532L43.2957 22.8206ZM40.9144 21.5642C40.6256 21.5642 40.3866 21.5267 40.1911 21.4599L39.9455 22.1791C40.2368 22.2786 40.5618 22.3242 40.9144 22.3242V21.5642ZM40.1911 21.4599C39.9891 21.391 39.8358 21.2999 39.7208 21.1934L39.2045 21.751C39.4101 21.9414 39.6606 22.0819 39.9455 22.1791L40.1911 21.4599ZM39.7151 21.1882C39.5987 21.0847 39.5104 20.9605 39.4489 20.8109L38.7461 21.1003C38.8508 21.3546 39.006 21.5747 39.2102 21.7562L39.7151 21.1882ZM39.4524 20.8199C39.3934 20.6655 39.3617 20.4923 39.3617 20.2966H38.6017C38.6017 20.5759 38.6472 20.842 38.7425 21.0913L39.4524 20.8199ZM39.3617 20.2966C39.3617 20.0929 39.3979 19.9252 39.4612 19.7858L38.7694 19.4713C38.6546 19.7239 38.6017 20.0015 38.6017 20.2966H39.3617ZM39.4572 19.7944C39.5264 19.6518 39.6263 19.5266 39.7624 19.4177L39.2876 18.8242C39.0675 19.0003 38.8942 19.2136 38.7734 19.4628L39.4572 19.7944ZM39.7641 19.4163C39.9552 19.2616 40.2315 19.1327 40.6149 19.0463L40.4479 18.3049C39.9881 18.4085 39.5936 18.5765 39.2859 18.8256L39.7641 19.4163ZM40.6187 19.0455C41.0106 18.9529 41.4789 18.9042 42.0276 18.9042V18.1442C41.4364 18.1442 40.9072 18.1964 40.4441 18.3058L40.6187 19.0455ZM42.0276 18.9042H43.5595V18.1442H42.0276V18.9042ZM43.1795 18.5242V20.4747H43.9395V18.5242H43.1795ZM43.2196 20.3047C43.1431 20.4578 43.0348 20.6123 42.8898 20.7676L43.4454 21.2862C43.633 21.0852 43.7859 20.8716 43.8994 20.6446L43.2196 20.3047ZM42.8943 20.7629C42.753 20.9093 42.5834 21.0436 42.3831 21.1649L42.7766 21.8151C43.0275 21.6632 43.2498 21.4889 43.441 21.2908L42.8943 20.7629ZM42.3868 21.1627C42.1839 21.2823 41.9573 21.3803 41.7054 21.4553L41.9224 22.1837C42.2286 22.0925 42.5126 21.9708 42.7729 21.8173L42.3868 21.1627ZM41.7054 21.4553C41.4649 21.527 41.2019 21.5642 40.9144 21.5642V22.3242C41.268 22.3242 41.6047 22.2783 41.9224 22.1837L41.7054 21.4553ZM48.7073 9.52V9.14H48.3273V9.52H48.7073ZM48.7073 10.9539H48.3273V11.3339H48.7073V10.9539ZM51.9848 10.9539H52.3648V10.5739H51.9848V10.9539ZM51.9848 21.775V22.155H52.3648V21.775H51.9848ZM48.7073 21.775V21.395H48.3273V21.775H48.7073ZM48.7073 23.2H48.3273V23.58H48.7073V23.2ZM56.7764 23.2V23.58H57.1564V23.2H56.7764ZM56.7764 21.775H57.1564V21.395H56.7764V21.775ZM53.6325 21.775H53.2525V22.155H53.6325V21.775ZM53.6325 9.52H54.0125V9.14H53.6325V9.52ZM48.3273 9.52V10.9539H49.0873V9.52H48.3273ZM48.7073 11.3339H51.9848V10.5739H48.7073V11.3339ZM51.6048 10.9539V21.775H52.3648V10.9539H51.6048ZM51.9848 21.395H48.7073V22.155H51.9848V21.395ZM48.3273 21.775V23.2H49.0873V21.775H48.3273ZM48.7073 23.58H56.7764V22.82H48.7073V23.58ZM57.1564 23.2V21.775H56.3964V23.2H57.1564ZM56.7764 21.395H53.6325V22.155H56.7764V21.395ZM54.0125 21.775V9.52H53.2525V21.775H54.0125ZM53.6325 9.14H48.7073V9.9H53.6325V9.14Z" fill="#30475E"/>
</g>
<g filter="url(#filter1_d)">
<rect x="60.1892" width="58.8108" height="32" fill="#F05454"/>
</g>
<g filter="url(#filter2_d)">
<path d="M65.094 23.2H69.2443C69.7965 23.1941 70.3309 23.108 70.8475 22.9417C71.37 22.7755 71.8301 22.535 72.2279 22.2203C72.6258 21.9116 72.9434 21.5256 73.1809 21.0625C73.4184 20.5994 73.5342 20.065 73.5283 19.4594C73.5283 19.0734 73.4689 18.7142 73.3501 18.3817C73.2373 18.0492 73.077 17.7494 72.8692 17.4822C72.6733 17.2388 72.4239 17.0161 72.1211 16.8142C71.8183 16.6123 71.5036 16.4728 71.177 16.3956V16.3689C71.4917 16.2323 71.7589 16.0869 71.9786 15.9325C72.2042 15.7781 72.409 15.5881 72.5931 15.3625C72.7712 15.1428 72.9108 14.8934 73.0117 14.6144C73.1186 14.3353 73.175 14.0266 73.1809 13.6881C73.1868 13.0825 73.0711 12.563 72.8336 12.1295C72.5961 11.6961 72.2784 11.3398 71.8806 11.0608C71.4828 10.7817 71.0286 10.5769 70.5179 10.4462C70.0073 10.3097 69.4848 10.2384 68.9504 10.2325H65.094V23.2ZM66.7506 17.1348H69.3779C69.7283 17.1467 70.0548 17.2061 70.3576 17.313C70.6604 17.4198 70.9247 17.5713 71.1503 17.7672C71.3759 17.9691 71.5511 18.2125 71.6758 18.4975C71.8064 18.7825 71.8687 19.1091 71.8628 19.4772C71.8628 19.8394 71.7915 20.163 71.649 20.448C71.5125 20.733 71.3254 20.9734 71.0879 21.1694C70.8504 21.3653 70.5773 21.5197 70.2686 21.6325C69.9598 21.7394 69.6333 21.7958 69.2889 21.8017H66.7506V17.1348ZM66.7506 15.7633V11.6397H69.0039C69.3245 11.6456 69.6362 11.6872 69.939 11.7644C70.2478 11.8416 70.5209 11.9603 70.7584 12.1206C70.99 12.2869 71.174 12.4977 71.3106 12.753C71.4531 13.0083 71.5243 13.317 71.5243 13.6792C71.5243 14.0177 71.4531 14.3145 71.3106 14.5698C71.1681 14.8252 70.9811 15.0389 70.7495 15.2111C70.5179 15.3892 70.2537 15.5258 69.9568 15.6208C69.66 15.7098 69.3572 15.7573 69.0484 15.7633H66.7506ZM82.4167 23.2H83.9129V13.5634H82.2564V20.4747C82.1673 20.6825 82.0545 20.8755 81.9179 21.0536C81.7873 21.2258 81.6329 21.3742 81.4548 21.4989C81.2411 21.6533 80.9887 21.775 80.6978 21.8641C80.4069 21.9472 80.0773 21.9888 79.7092 21.9888C79.3945 21.9888 79.1154 21.9472 78.872 21.8641C78.6345 21.7809 78.4326 21.6355 78.2664 21.4277C78.1001 21.2258 77.9754 20.9527 77.8923 20.6083C77.8092 20.2639 77.7676 19.8305 77.7676 19.308V13.5634H76.12V19.2902C76.12 20.0086 76.1972 20.6261 76.3515 21.1427C76.5118 21.6533 76.7375 22.0748 77.0284 22.4073C77.3193 22.7398 77.6697 22.9863 78.0793 23.1466C78.489 23.3009 78.9462 23.3781 79.4509 23.3781C80.0803 23.3781 80.6354 23.2475 81.1164 22.9863C81.5973 22.7191 81.9981 22.348 82.3187 21.873L82.4167 23.2ZM88.9984 21.8552L94.8142 14.7302V13.5634H86.9767V14.9261H92.65L86.8965 21.9888V23.2H95.1348V21.8552H88.9984ZM99.9531 21.8552L105.769 14.7302V13.5634H97.9314V14.9261H103.605L97.8512 21.9888V23.2H106.09V21.8552H99.9531Z" fill="#E8E8E8"/>
<path d="M65.094 23.2H64.714V23.58H65.094V23.2ZM69.2443 23.2V23.58L69.2484 23.58L69.2443 23.2ZM70.8475 22.9417L70.7323 22.5796L70.7311 22.58L70.8475 22.9417ZM72.2279 22.2203L71.9949 21.9201L71.9922 21.9223L72.2279 22.2203ZM73.5283 19.4594H73.1482L73.1483 19.4631L73.5283 19.4594ZM73.3501 18.3817L72.9902 18.5038L72.9923 18.5095L73.3501 18.3817ZM72.8692 17.4822L73.1692 17.2489L73.1652 17.2439L72.8692 17.4822ZM71.177 16.3956H70.797V16.6963L71.0896 16.7654L71.177 16.3956ZM71.177 16.3689L71.0257 16.0203L70.797 16.1196V16.3689H71.177ZM71.9786 15.9325L71.764 15.6189L71.7601 15.6216L71.9786 15.9325ZM72.5931 15.3625L72.8875 15.6027L72.8883 15.6018L72.5931 15.3625ZM73.0117 14.6144L72.6568 14.4784L72.6544 14.4851L73.0117 14.6144ZM73.1809 13.6881L73.5609 13.6948L73.5609 13.6919L73.1809 13.6881ZM72.8336 12.1295L72.5003 12.3121L72.8336 12.1295ZM70.5179 10.4462L70.4198 10.8134L70.4238 10.8144L70.5179 10.4462ZM68.9504 10.2325L68.9547 9.8525H68.9504V10.2325ZM65.094 10.2325V9.8525H64.714V10.2325H65.094ZM66.7506 17.1348V16.7548H66.3706V17.1348H66.7506ZM69.3779 17.1348L69.3908 16.7548H69.3779V17.1348ZM71.1503 17.7672L71.4037 17.484L71.3994 17.4803L71.1503 17.7672ZM71.6758 18.4975L71.3276 18.6498L71.3303 18.6558L71.6758 18.4975ZM71.8628 19.4772L71.4828 19.4711V19.4772H71.8628ZM71.649 20.448L71.3091 20.278L71.3063 20.2838L71.649 20.448ZM70.2686 21.6325L70.3929 21.9916L70.399 21.9894L70.2686 21.6325ZM69.2889 21.8017V22.1818L69.2954 22.1817L69.2889 21.8017ZM66.7506 21.8017H66.3706V22.1817H66.7506V21.8017ZM66.7506 15.7633H66.3706V16.1433H66.7506V15.7633ZM66.7506 11.6397V11.2597H66.3706V11.6397H66.7506ZM69.0039 11.6397L69.0109 11.2597H69.0039V11.6397ZM69.939 11.7644L69.8452 12.1326L69.8469 12.133L69.939 11.7644ZM70.7584 12.1206L70.9801 11.8118L70.971 11.8057L70.7584 12.1206ZM71.3106 12.753L70.9755 12.9322L70.9788 12.9382L71.3106 12.753ZM70.7495 15.2111L70.5227 14.9061L70.5178 14.9099L70.7495 15.2111ZM69.9568 15.6208L70.0661 15.9848L70.0727 15.9827L69.9568 15.6208ZM69.0484 15.7633V16.1434L69.0557 16.1432L69.0484 15.7633ZM65.094 23.58H69.2443V22.82H65.094V23.58ZM69.2484 23.58C69.8381 23.5736 70.4104 23.4816 70.9639 23.3034L70.7311 22.58C70.2515 22.7343 69.755 22.8145 69.2403 22.82L69.2484 23.58ZM70.9627 23.3038C71.5254 23.1248 72.0271 22.8637 72.4637 22.5183L71.9922 21.9223C71.6332 22.2063 71.2146 22.4261 70.7323 22.5796L70.9627 23.3038ZM72.4609 22.5205C72.9041 22.1765 73.2571 21.7468 73.519 21.2359L72.8428 20.8891C72.6298 21.3045 72.3474 21.6466 71.995 21.9201L72.4609 22.5205ZM73.519 21.2359C73.7889 20.7097 73.9147 20.1127 73.9082 19.4557L73.1483 19.4631C73.1537 20.0173 73.0479 20.4891 72.8428 20.8891L73.519 21.2359ZM73.9083 19.4594C73.9083 19.0339 73.8427 18.6311 73.708 18.2539L72.9923 18.5095C73.0951 18.7974 73.1483 19.1129 73.1483 19.4594H73.9083ZM73.71 18.2596C73.5841 17.8885 73.404 17.5508 73.1691 17.2489L72.5692 17.7155C72.7501 17.948 72.8906 18.2099 72.9903 18.5038L73.71 18.2596ZM73.1652 17.2439C72.9414 16.9658 72.6617 16.7179 72.3319 16.498L71.9103 17.1304C72.1861 17.3142 72.4051 17.5117 72.5732 17.7205L73.1652 17.2439ZM72.3319 16.498C71.9946 16.2732 71.6385 16.1142 71.2644 16.0258L71.0896 16.7654C71.3686 16.8314 71.6419 16.9515 71.9103 17.1304L72.3319 16.498ZM71.557 16.3956V16.3689H70.797V16.3956H71.557ZM71.3283 16.7175C71.6604 16.5734 71.9514 16.416 72.197 16.2434L71.7601 15.6216C71.5663 15.7577 71.323 15.8913 71.0257 16.0203L71.3283 16.7175ZM72.1931 16.2461C72.4507 16.0699 72.682 15.8547 72.8875 15.6027L72.2987 15.1223C72.1361 15.3216 71.9577 15.4863 71.764 15.6189L72.1931 16.2461ZM72.8883 15.6018C73.0944 15.3476 73.2544 15.0606 73.369 14.7436L72.6544 14.4851C72.5671 14.7263 72.448 14.938 72.2979 15.1232L72.8883 15.6018ZM73.3666 14.7503C73.4912 14.4248 73.5542 14.0716 73.5609 13.6948L72.801 13.6815C72.7957 13.9815 72.7459 14.2458 72.6568 14.4785L73.3666 14.7503ZM73.5609 13.6919C73.5673 13.0357 73.4419 12.449 73.1668 11.9469L72.5003 12.3121C72.7002 12.677 72.8064 13.1293 72.8009 13.6844L73.5609 13.6919ZM73.1668 11.9469C72.9018 11.4633 72.5452 11.0628 72.0988 10.7497L71.6624 11.3719C72.0117 11.6169 72.2903 11.9289 72.5003 12.3121L73.1668 11.9469ZM72.0988 10.7497C71.6604 10.4421 71.1634 10.2191 70.6121 10.0781L70.4238 10.8144C70.8937 10.9346 71.3052 11.1213 71.6624 11.3719L72.0988 10.7497ZM70.6161 10.0792C70.0745 9.9343 69.5204 9.85881 68.9547 9.85252L68.9462 10.6125C69.4492 10.6181 69.9401 10.6851 70.4198 10.8133L70.6161 10.0792ZM68.9504 9.8525H65.094V10.6125H68.9504V9.8525ZM64.714 10.2325V23.2H65.474V10.2325H64.714ZM66.7506 17.5148H69.3779V16.7548H66.7506V17.5148ZM69.3651 17.5146C69.6802 17.5253 69.9681 17.5785 70.2312 17.6713L70.4841 16.9546C70.1416 16.8337 69.7763 16.7681 69.3908 16.7551L69.3651 17.5146ZM70.2312 17.6713C70.4923 17.7635 70.7142 17.8917 70.9011 18.0541L71.3994 17.4803C71.1352 17.2508 70.8286 17.0762 70.4841 16.9546L70.2312 17.6713ZM70.8969 18.0504C71.0808 18.2149 71.2241 18.4133 71.3276 18.6498L72.0239 18.3452C71.878 18.0117 71.671 17.7232 71.4037 17.484L70.8969 18.0504ZM71.3303 18.6558C71.4335 18.881 71.488 19.1498 71.4828 19.4711L72.2427 19.4833C72.2494 19.0683 72.1792 18.684 72.0212 18.3392L71.3303 18.6558ZM71.4828 19.4772C71.4828 19.7885 71.4219 20.0526 71.3092 20.278L71.9889 20.6179C72.1612 20.2733 72.2428 19.8903 72.2428 19.4772H71.4828ZM71.3063 20.2838C71.193 20.5203 71.0399 20.7164 70.8461 20.8763L71.3298 21.4625C71.611 21.2305 71.832 20.9456 71.9917 20.6122L71.3063 20.2838ZM70.8461 20.8763C70.6441 21.043 70.4092 21.1766 70.1382 21.2756L70.399 21.9894C70.7455 21.8628 71.0568 21.6877 71.3298 21.4625L70.8461 20.8763ZM70.1443 21.2734C69.8754 21.3665 69.5888 21.4165 69.2823 21.4218L69.2954 22.1817C69.6777 22.1751 70.0442 22.1123 70.3929 21.9916L70.1443 21.2734ZM69.2889 21.4217H66.7506V22.1817H69.2889V21.4217ZM67.1306 21.8017V17.1348H66.3706V21.8017H67.1306ZM67.1306 15.7633V11.6397H66.3706V15.7633H67.1306ZM66.7506 12.0197H69.0039V11.2597H66.7506V12.0197ZM68.9968 12.0196C69.2889 12.025 69.5715 12.0628 69.8452 12.1326L70.0329 11.3961C69.701 11.3115 69.3601 11.2662 69.0109 11.2598L68.9968 12.0196ZM69.8469 12.133C70.1174 12.2007 70.3489 12.3026 70.5458 12.4356L70.971 11.8057C70.693 11.618 70.3782 11.4825 70.0312 11.3957L69.8469 12.133ZM70.5368 12.4293C70.7204 12.5611 70.8659 12.7273 70.9755 12.9322L71.6457 12.5737C71.4821 12.268 71.2596 12.0126 70.98 11.8119L70.5368 12.4293ZM70.9788 12.9382C71.083 13.1249 71.1443 13.3666 71.1443 13.6792H71.9043C71.9043 13.2675 71.8232 12.8917 71.6424 12.5678L70.9788 12.9382ZM71.1443 13.6792C71.1443 13.9631 71.085 14.1943 70.9788 14.3846L71.6424 14.755C71.8212 14.4348 71.9043 14.0722 71.9043 13.6792H71.1443ZM70.9788 14.3846C70.8621 14.5937 70.7106 14.7664 70.5228 14.9062L70.9763 15.516C71.2515 15.3114 71.4741 15.0566 71.6424 14.755L70.9788 14.3846ZM70.5178 14.9099C70.3233 15.0595 70.0989 15.1763 69.841 15.2589L70.0727 15.9827C70.4086 15.8752 70.7125 15.719 70.9812 15.5123L70.5178 14.9099ZM69.8477 15.2568C69.5837 15.336 69.3152 15.3781 69.0411 15.3834L69.0557 16.1432C69.3991 16.1366 69.7362 16.0837 70.066 15.9848L69.8477 15.2568ZM69.0484 15.3833H66.7506V16.1433H69.0484V15.3833ZM82.4167 23.2L82.0377 23.228L82.0637 23.58H82.4167V23.2ZM83.9129 23.2V23.58H84.2929V23.2H83.9129ZM83.9129 13.5634H84.2929V13.1834H83.9129V13.5634ZM82.2564 13.5634V13.1834H81.8764V13.5634H82.2564ZM82.2564 20.4747L82.6057 20.6244L82.6364 20.5527V20.4747H82.2564ZM81.9179 21.0536L81.6164 20.8224L81.6152 20.8239L81.9179 21.0536ZM81.4548 21.4989L81.2369 21.1876L81.2323 21.1908L81.4548 21.4989ZM80.6978 21.8641L80.8022 22.2295L80.809 22.2274L80.6978 21.8641ZM78.872 21.8641L78.7465 22.2227L78.7492 22.2237L78.872 21.8641ZM78.2664 21.4277L78.5631 21.1902L78.5597 21.1861L78.2664 21.4277ZM77.8923 20.6083L77.5229 20.6974L77.8923 20.6083ZM77.7676 13.5634H78.1476V13.1834H77.7676V13.5634ZM76.12 13.5634V13.1834H75.74V13.5634H76.12ZM76.3515 21.1427L75.9874 21.2515L75.989 21.2565L76.3515 21.1427ZM77.0284 22.4073L76.7424 22.6576L77.0284 22.4073ZM78.0793 23.1466L77.9409 23.5005L77.9454 23.5022L78.0793 23.1466ZM81.1164 22.9862L81.2978 23.3202L81.3009 23.3184L81.1164 22.9862ZM82.3187 21.873L82.6977 21.845L82.617 20.7519L82.0038 21.6604L82.3187 21.873ZM82.4167 23.58H83.9129V22.82H82.4167V23.58ZM84.2929 23.2V13.5634H83.5329V23.2H84.2929ZM83.9129 13.1834H82.2564V13.9434H83.9129V13.1834ZM81.8764 13.5634V20.4747H82.6364V13.5634H81.8764ZM81.9071 20.325C81.8304 20.504 81.7336 20.6695 81.6164 20.8224L82.2195 21.2848C82.3754 21.0814 82.5042 20.861 82.6057 20.6244L81.9071 20.325ZM81.6152 20.8239C81.5086 20.9645 81.3829 21.0854 81.2369 21.1876L81.6727 21.8102C81.883 21.663 82.0661 21.4871 82.2207 21.2833L81.6152 20.8239ZM81.2323 21.1908C81.0571 21.3174 80.8436 21.422 80.5866 21.5007L80.809 22.2274C81.1338 22.128 81.425 21.9892 81.6773 21.807L81.2323 21.1908ZM80.5934 21.4987C80.3428 21.5703 80.0494 21.6088 79.7092 21.6088V22.3688C80.1053 22.3688 80.4709 22.3241 80.8022 22.2294L80.5934 21.4987ZM79.7092 21.6088C79.4273 21.6088 79.191 21.5714 78.9948 21.5044L78.7492 22.2237C79.0399 22.3229 79.3617 22.3688 79.7092 22.3688V21.6088ZM78.9975 21.5054C78.8313 21.4472 78.6875 21.3458 78.5631 21.1903L77.9697 21.665C78.1778 21.9252 78.4377 22.1147 78.7465 22.2227L78.9975 21.5054ZM78.5597 21.1861C78.4406 21.0415 78.3359 20.8264 78.2617 20.5191L77.5229 20.6974C77.615 21.0789 77.7597 21.4101 77.973 21.6692L78.5597 21.1861ZM78.2617 20.5191C78.1881 20.2142 78.1476 19.8132 78.1476 19.308H77.3876C77.3876 19.8477 77.4303 20.3136 77.5229 20.6974L78.2617 20.5191ZM78.1476 19.308V13.5634H77.3876V19.308H78.1476ZM77.7676 13.1834H76.12V13.9434H77.7676V13.1834ZM75.74 13.5634V19.2902H76.5V13.5634H75.74ZM75.74 19.2902C75.74 20.034 75.8197 20.6901 75.9874 21.2515L76.7156 21.0338C76.5746 20.5621 76.5 19.9832 76.5 19.2902H75.74ZM75.989 21.2565C76.1618 21.807 76.4103 22.278 76.7424 22.6576L77.3144 22.1571C77.0647 21.8717 76.8619 21.4996 76.7141 21.0288L75.989 21.2565ZM76.7424 22.6576C77.0733 23.0358 77.4742 23.3178 77.9409 23.5004L78.2178 22.7927C77.8652 22.6547 77.5654 22.4439 77.3144 22.1571L76.7424 22.6576ZM77.9454 23.5022C78.4039 23.6749 78.9073 23.7581 79.4509 23.7581V22.9981C78.9851 22.9981 78.5742 22.9269 78.2133 22.791L77.9454 23.5022ZM79.4509 23.7581C80.1341 23.7581 80.7533 23.6159 81.2978 23.3202L80.935 22.6523C80.5176 22.8791 80.0265 22.9981 79.4509 22.9981V23.7581ZM81.3009 23.3184C81.8363 23.021 82.281 22.608 82.6337 22.0856L82.0038 21.6604C81.7152 22.0879 81.3583 22.4171 80.9318 22.6541L81.3009 23.3184ZM81.9398 21.9009L82.0377 23.228L82.7957 23.172L82.6977 21.845L81.9398 21.9009ZM88.9984 21.8552L88.704 21.6149L88.1977 22.2352H88.9984V21.8552ZM94.8142 14.7302L95.1086 14.9704L95.1942 14.8656V14.7302H94.8142ZM94.8142 13.5634H95.1942V13.1834H94.8142V13.5634ZM86.9767 13.5634V13.1834H86.5967V13.5634H86.9767ZM86.9767 14.9261H86.5967V15.3061H86.9767V14.9261ZM92.65 14.9261L92.9446 15.1661L93.4497 14.5461H92.65V14.9261ZM86.8965 21.9888L86.6019 21.7487L86.5165 21.8536V21.9888H86.8965ZM86.8965 23.2H86.5165V23.58H86.8965V23.2ZM95.1348 23.2V23.58H95.5148V23.2H95.1348ZM95.1348 21.8552H95.5148V21.4752H95.1348V21.8552ZM89.2928 22.0954L95.1086 14.9704L94.5198 14.4899L88.704 21.6149L89.2928 22.0954ZM95.1942 14.7302V13.5634H94.4342V14.7302H95.1942ZM94.8142 13.1834H86.9767V13.9434H94.8142V13.1834ZM86.5967 13.5634V14.9261H87.3567V13.5634H86.5967ZM86.9767 15.3061H92.65V14.5461H86.9767V15.3061ZM92.3554 14.6861L86.6019 21.7487L87.1912 22.2288L92.9446 15.1661L92.3554 14.6861ZM86.5165 21.9888V23.2H87.2765V21.9888H86.5165ZM86.8965 23.58H95.1348V22.82H86.8965V23.58ZM95.5148 23.2V21.8552H94.7548V23.2H95.5148ZM95.1348 21.4752H88.9984V22.2352H95.1348V21.4752ZM99.9531 21.8552L99.6587 21.6149L99.1524 22.2352H99.9531V21.8552ZM105.769 14.7302L106.063 14.9704L106.149 14.8656V14.7302H105.769ZM105.769 13.5634H106.149V13.1834H105.769V13.5634ZM97.9314 13.5634V13.1834H97.5514V13.5634H97.9314ZM97.9314 14.9261H97.5514V15.3061H97.9314V14.9261ZM103.605 14.9261L103.899 15.1661L104.404 14.5461H103.605V14.9261ZM97.8512 21.9888L97.5566 21.7487L97.4712 21.8536V21.9888H97.8512ZM97.8512 23.2H97.4712V23.58H97.8512V23.2ZM106.09 23.2V23.58H106.47V23.2H106.09ZM106.09 21.8552H106.47V21.4752H106.09V21.8552ZM100.247 22.0954L106.063 14.9704L105.474 14.4899L99.6587 21.6149L100.247 22.0954ZM106.149 14.7302V13.5634H105.389V14.7302H106.149ZM105.769 13.1834H97.9314V13.9434H105.769V13.1834ZM97.5514 13.5634V14.9261H98.3114V13.5634H97.5514ZM97.9314 15.3061H103.605V14.5461H97.9314V15.3061ZM103.31 14.6861L97.5566 21.7487L98.1458 22.2288L103.899 15.1661L103.31 14.6861ZM97.4712 21.9888V23.2H98.2312V21.9888H97.4712ZM97.8512 23.58H106.09V22.82H97.8512V23.58ZM106.47 23.2V21.8552H105.71V23.2H106.47ZM106.09 21.4752H99.9531V22.2352H106.09V21.4752Z" fill="#E8E8E8"/>
</g>
<defs>
<filter id="filter0_d" x="0.66405" y="9.14" width="60.2923" height="25.8341" filterUnits="userSpaceOnUse" color-interpolation-filters="sRGB">
<feFlood flood-opacity="0" result="BackgroundImageFix"/>
<feColorMatrix in="SourceAlpha" type="matrix" values="0 0 0 0 0 0 0 0 0 0 0 0 0 0 0 0 0 0 127 0"/>
<feOffset dy="3.8"/>
<feGaussianBlur stdDeviation="1.9"/>
<feColorMatrix type="matrix" values="0 0 0 0 0 0 0 0 0 0 0 0 0 0 0 0 0 0 0.25 0"/>
<feBlend mode="normal" in2="BackgroundImageFix" result="effect1_dropShadow"/>
<feBlend mode="normal" in="SourceGraphic" in2="effect1_dropShadow" result="shape"/>
</filter>
<filter id="filter1_d" x="56.3892" y="0" width="66.4108" height="39.6" filterUnits="userSpaceOnUse" color-interpolation-filters="sRGB">
<feFlood flood-opacity="0" result="BackgroundImageFix"/>
<feColorMatrix in="SourceAlpha" type="matrix" values="0 0 0 0 0 0 0 0 0 0 0 0 0 0 0 0 0 0 127 0"/>
<feOffset dy="3.8"/>
<feGaussianBlur stdDeviation="1.9"/>
<feColorMatrix type="matrix" values="0 0 0 0 0 0 0 0 0 0 0 0 0 0 0 0 0 0 0.25 0"/>
<feBlend mode="normal" in2="BackgroundImageFix" result="effect1_dropShadow"/>
<feBlend mode="normal" in="SourceGraphic" in2="effect1_dropShadow" result="shape"/>
</filter>
<filter id="filter2_d" x="60.914" y="9.8525" width="49.3555" height="21.5056" filterUnits="userSpaceOnUse" color-interpolation-filters="sRGB">
<feFlood flood-opacity="0" result="BackgroundImageFix"/>
<feColorMatrix in="SourceAlpha" type="matrix" values="0 0 0 0 0 0 0 0 0 0 0 0 0 0 0 0 0 0 127 0"/>
<feOffset dy="3.8"/>
<feGaussianBlur stdDeviation="1.9"/>
<feColorMatrix type="matrix" values="0 0 0 0 0 0 0 0 0 0 0 0 0 0 0 0 0 0 0.25 0"/>
<feBlend mode="normal" in2="BackgroundImageFix" result="effect1_dropShadow"/>
<feBlend mode="normal" in="SourceGraphic" in2="effect1_dropShadow" result="shape"/>
</filter>
</defs>
</svg>
